<svg id="Capa_1" data-name="Capa 1" xmlns="http://www.w3.org/2000/svg" viewBox="0 0 190.93 96.43"><defs><style>.cls-1{fill:#fff;}</style></defs><path class="cls-1" d="M182.31,50.21H8.62a1.09,1.09,0,0,1,0-2.13H182.31a1.09,1.09,0,0,1,0,2.13Z"/><path class="cls-1" d="M25.83,14.47a1,1,0,0,1,1-1.05h7.18a15.58,15.58,0,0,1,13.26,24H52.4a16.28,16.28,0,0,0-6.12-24.63,11.46,11.46,0,0,0-1.78-.61,26.94,26.94,0,0,0-7-.89H13.42a1,1,0,0,0-.74.31,1,1,0,0,0-.31.75,1.09,1.09,0,0,0,1.09,1.09h4.22a1,1,0,0,1,1,1v23h7.13Z"/><path class="cls-1" d="M59,59.92H51.58a15.7,15.7,0,0,1-13,22.56c-.37,0-.75,0-1.13,0s-.76,0-1.13,0H26.89a1.06,1.06,0,0,1-1.06-1.06V59.92H18.89V81.37a1.14,1.14,0,0,1-1.11,1.11H13.16a1.13,1.13,0,0,0-.94.66.6.6,0,0,0-.06.19s0,0,0,.09a.41.41,0,0,0,0,.12h0a1.07,1.07,0,0,0,.13.51.94.94,0,0,0,.18.25,1.06,1.06,0,0,0,.76.32H42.35a17.37,17.37,0,0,0,3.41-.33A18,18,0,0,0,59,59.92Z"/><path class="cls-1" d="M146.33,16.54a1,1,0,0,1,1-1h4.73a1.09,1.09,0,0,0,1.08-1.1h0a1.09,1.09,0,0,0-1.08-1.08l-18.25,0a1.07,1.07,0,0,0-1.09,1.08v0a1.08,1.08,0,0,0,1.08,1.08h4.34a1.18,1.18,0,0,1,1.21,1.15V37.85h6.94Z"/><path class="cls-1" d="M91.76,20.15a1.12,1.12,0,0,1,2.13,0l5.89,17.71h7.14l-8-24a1.1,1.1,0,0,0-1-.75H92.26a1.17,1.17,0,0,0-1.12.82l-7.69,23.9h2.6Z"/><path class="cls-1" d="M69.49,81.29c-.43,1.23-.83,1.7-1.3,1.77l-4.31,0a1.06,1.06,0,0,0-1.06,1.06h0a1.05,1.05,0,0,0,1.06,1.05H82.49a1,1,0,0,0,1-1v0a1,1,0,0,0-1-1l-9.71,0a1.1,1.1,0,0,1-.87-1.34l6.86-21.26H76.19Z"/><path class="cls-1" d="M122.71,83a1.06,1.06,0,0,1-1-.73l-7.28-21.88h-7.14l7,21c.15,1.15-.46,1.52-1,1.59h-4a1.05,1.05,0,0,0-1,1.07h0a1.05,1.05,0,0,0,1.06,1.05h18.46a1,1,0,0,0,1-1v0a1,1,0,0,0-1-1Z"/><path class="cls-1" d="M177.43,66.7a1.17,1.17,0,0,0-1.2,1l-1.57,14.06A1.37,1.37,0,0,1,173.3,83H147.56a1.23,1.23,0,0,1-1.23-1.22V60.89h-6.94V81.68c-.13.82-.54,1.26-1.22,1.33l-4.36,0a1.06,1.06,0,0,0-1.05,1.06h0a1.05,1.05,0,0,0,1.06,1.06l19.46-.1,22.55.1A1.23,1.23,0,0,0,177.05,84l1.6-16a1.18,1.18,0,0,0-1.16-1.3Z"/></svg>