<svg xmlns="http://www.w3.org/2000/svg" xmlns:xlink="http://www.w3.org/1999/xlink" width="1080" zoomAndPan="magnify" viewBox="0 0 810 809.999993" height="1080" preserveAspectRatio="xMidYMid meet" version="1.0"><defs><clipPath id="80992035f8"><path d="M 61 84 L 749.660156 84 L 749.660156 728 L 61 728 Z M 61 84 " clip-rule="nonzero"/></clipPath></defs><g clip-path="url(#80992035f8)"><path fill="#ffffff" d="M 276.40625 85.476562 C 272.308594 88.648438 266.367188 94.84375 262.933594 99.398438 C 258.734375 105.03125 254.226562 109.894531 252.230469 110.96875 C 251.460938 111.378906 249.105469 111.839844 247.058594 111.992188 C 243.472656 112.296875 243.0625 112.246094 239.734375 110.609375 C 237.019531 109.328125 235.328125 108.871094 232.460938 108.714844 C 227.746094 108.460938 226.210938 109.277344 226.210938 112.042969 C 226.210938 115.882812 229.589844 118.492188 237.171875 120.644531 C 239.476562 121.257812 242.855469 122.484375 244.753906 123.355469 C 247.570312 124.636719 248.390625 125.300781 249.257812 126.988281 C 249.875 128.21875 251.617188 130.113281 253.460938 131.496094 C 258.992188 135.792969 261.859375 138.710938 263.089844 141.375 C 264.113281 143.574219 264.214844 144.085938 263.601562 145.160156 C 263.039062 146.289062 263.140625 146.800781 264.828125 150.179688 C 265.855469 152.226562 266.671875 154.121094 266.671875 154.324219 C 266.671875 154.835938 274.152344 166.351562 275.175781 167.324219 C 276.148438 168.351562 277.941406 171.933594 279.734375 176.4375 C 280.503906 178.382812 281.324219 180.226562 281.527344 180.53125 C 281.730469 180.789062 282.449219 182.734375 283.0625 184.832031 C 283.679688 186.929688 284.496094 189.132812 284.855469 189.695312 C 285.265625 190.308594 286.085938 192.152344 286.699219 193.839844 C 287.316406 195.480469 289.003906 198.910156 290.4375 201.367188 C 291.875 203.824219 294.074219 207.664062 295.304688 209.8125 C 296.585938 212.011719 297.710938 213.90625 297.867188 214.0625 C 298.171875 214.316406 299.660156 216.925781 300.988281 219.4375 C 301.398438 220.304688 303.5 223.53125 305.601562 226.601562 C 309.289062 232.078125 311.847656 236.019531 313.847656 239.550781 C 314.410156 240.472656 315.28125 241.855469 315.792969 242.625 C 316.304688 243.390625 317.839844 245.796875 319.222656 248 C 322.910156 253.835938 326.855469 259.824219 330.082031 264.480469 C 331.617188 266.683594 333.308594 269.292969 333.820312 270.214844 C 335.050781 272.414062 335.101562 274.921875 333.921875 275.28125 C 333.410156 275.433594 332.59375 275.792969 332.132812 276.050781 C 331.617188 276.304688 330.75 276.511719 330.234375 276.511719 C 329.671875 276.511719 329.058594 276.714844 328.902344 277.023438 C 328.75 277.277344 327.878906 277.535156 327.007812 277.535156 C 324.550781 277.535156 319.53125 279.992188 319.328125 281.320312 C 319.222656 282.140625 318.558594 282.550781 316.355469 283.113281 C 314.820312 283.523438 313.28125 284.1875 312.976562 284.648438 C 312.667969 285.058594 311.949219 285.261719 311.386719 285.109375 C 310.722656 284.90625 309.851562 285.261719 309.132812 285.929688 C 308.46875 286.492188 307.648438 287.003906 307.339844 287.003906 C 306.164062 287.003906 302.886719 290.175781 301.964844 292.226562 C 301.398438 293.402344 300.527344 294.632812 299.964844 294.9375 C 299.402344 295.246094 298.941406 295.757812 298.941406 296.0625 C 298.941406 296.371094 298.582031 296.882812 298.070312 297.242188 C 297.609375 297.601562 297.199219 298.316406 297.148438 298.828125 C 297.046875 299.800781 296.378906 301.4375 294.023438 306.457031 C 293.359375 307.886719 292.796875 309.527344 292.796875 310.140625 C 292.796875 310.753906 292.539062 311.421875 292.28125 311.574219 C 291.976562 311.777344 291.875 312.136719 292.078125 312.394531 C 292.230469 312.648438 291.875 314.234375 291.308594 315.925781 C 290.695312 317.613281 290.234375 319.457031 290.234375 319.96875 C 290.234375 320.53125 289.976562 321.148438 289.671875 321.351562 C 289.261719 321.554688 289.160156 322.683594 289.363281 324.574219 C 289.671875 327.597656 289.464844 328.363281 288.132812 328.824219 C 287.570312 329.03125 287.210938 330.054688 287.007812 331.894531 C 286.496094 336.347656 285.828125 339.371094 285.214844 340.136719 C 284.394531 341.109375 283.78125 350.273438 283.933594 358.667969 C 283.984375 359.792969 283.984375 362.148438 283.933594 363.941406 C 283.933594 366.242188 284.140625 367.316406 284.652344 367.675781 C 285.214844 368.035156 285.214844 368.136719 284.496094 368.136719 C 283.371094 368.136719 283.320312 368.800781 284.394531 369.722656 C 284.90625 370.132812 285.0625 370.800781 284.855469 371.566406 C 284.703125 372.230469 284.957031 373.5625 285.417969 374.535156 C 286.085938 375.96875 286.136719 376.480469 285.625 377.09375 C 284.804688 378.066406 285.316406 379.398438 286.546875 379.398438 C 287.46875 379.398438 288.699219 380.320312 288.699219 381.035156 C 288.699219 381.242188 288.1875 381.855469 287.570312 382.46875 L 286.445312 383.492188 L 287.570312 383.492188 C 288.441406 383.492188 288.699219 383.800781 288.699219 384.824219 C 288.699219 386 289.464844 390.8125 290.695312 397.3125 C 290.953125 398.59375 291.925781 401.820312 292.949219 404.480469 C 293.921875 407.140625 295.304688 410.878906 296.023438 412.773438 C 296.6875 414.617188 297.761719 416.867188 298.328125 417.6875 C 298.941406 418.507812 299.660156 420.246094 299.964844 421.527344 C 300.582031 424.289062 306.417969 435.808594 309.082031 439.542969 C 310.105469 440.925781 312.617188 444.152344 314.71875 446.660156 C 318.457031 451.164062 318.507812 451.265625 318.097656 453.3125 C 317.890625 454.492188 317.6875 457.765625 317.636719 460.632812 C 317.585938 463.5 317.429688 466.058594 317.226562 466.214844 C 317.023438 466.417969 316.867188 467.800781 316.867188 469.285156 L 316.867188 471.945312 L 310.15625 478.550781 C 306.46875 482.132812 302.117188 486.6875 300.582031 488.683594 C 298.992188 490.628906 297.199219 492.78125 296.585938 493.394531 C 295.96875 494.007812 294.230469 496.3125 292.742188 498.511719 C 291.257812 500.714844 289.621094 502.964844 289.160156 503.53125 C 288.699219 504.09375 287.058594 506.855469 285.625 509.671875 C 281.886719 516.839844 279.273438 521.445312 276.917969 525.027344 C 275.789062 526.71875 274.714844 528.457031 274.511719 528.867188 C 273.128906 531.9375 265.546875 540.28125 261.910156 542.6875 C 260.886719 543.40625 259.914062 544.328125 259.757812 544.839844 C 259.605469 545.300781 258.734375 546.21875 257.8125 546.9375 C 256.890625 547.652344 255.660156 548.675781 255.046875 549.1875 C 253.355469 550.675781 246.136719 560.449219 243.933594 564.238281 C 242.855469 566.03125 241.78125 567.875 241.527344 568.28125 C 241.269531 568.691406 240.550781 570.074219 239.9375 571.355469 C 238.605469 574.167969 231.488281 583.792969 227.339844 588.347656 C 225.648438 590.242188 221.652344 594.132812 218.527344 597.050781 C 215.351562 599.96875 208.132812 606.929688 202.445312 612.558594 C 196.8125 618.191406 189.898438 624.742188 187.132812 627.148438 C 184.367188 629.554688 180.625 632.78125 178.886719 634.316406 C 174.992188 637.695312 165.621094 645.21875 160.242188 649.3125 C 158.039062 650.953125 155.886719 652.589844 155.425781 653 C 154.964844 653.355469 153.941406 654.125 153.121094 654.636719 C 152.355469 655.148438 150.40625 656.480469 148.871094 657.65625 C 146.15625 659.652344 143.492188 661.238281 136.578125 664.875 C 134.734375 665.847656 131.40625 667.996094 129.152344 669.636719 C 126.898438 671.324219 124.902344 672.707031 124.695312 672.707031 C 123.980469 672.707031 112.710938 680.382812 110.714844 682.175781 C 109.636719 683.199219 106.617188 685.65625 104.003906 687.601562 C 101.441406 689.496094 96.9375 693.640625 94.015625 696.664062 C 90.996094 699.835938 87.769531 702.753906 86.488281 703.367188 C 84.234375 704.546875 78.445312 708.078125 74.605469 710.738281 C 71.53125 712.890625 68.765625 715.449219 67.945312 716.933594 C 67.585938 717.648438 66.769531 718.316406 66.101562 718.46875 C 65.488281 718.621094 64.257812 719.390625 63.386719 720.105469 C 60.160156 722.820312 62.054688 727.066406 66.769531 727.785156 C 69.945312 728.246094 79.523438 727.785156 80.339844 727.121094 C 80.699219 726.8125 82.390625 726.148438 84.078125 725.6875 C 88.484375 724.457031 90.125 723.792969 90.996094 722.871094 C 91.402344 722.410156 92.53125 721.746094 93.453125 721.4375 C 94.375 721.128906 95.808594 720.414062 96.578125 719.800781 C 97.398438 719.238281 98.214844 718.777344 98.472656 718.777344 C 98.675781 718.777344 100.574219 717.753906 102.722656 716.523438 C 106.460938 714.320312 111.636719 712.324219 117.578125 710.789062 C 119.675781 710.226562 120.753906 710.175781 121.675781 710.585938 C 122.441406 710.894531 126.589844 711.457031 130.945312 711.863281 C 140.316406 712.734375 142.621094 713.09375 143.03125 713.707031 C 143.1875 713.964844 144.464844 714.167969 145.847656 714.167969 C 148 714.167969 148.921875 713.8125 151.328125 712.171875 C 155.019531 709.664062 155.683594 708.894531 157.324219 705.3125 C 158.550781 702.652344 159.574219 696.613281 159.628906 691.59375 C 159.628906 689.957031 161.777344 687.089844 166.183594 682.585938 C 169.460938 679.308594 172.945312 676.75 179.089844 673.015625 C 182.007812 671.273438 185.59375 668.714844 190.410156 665.027344 C 191.179688 664.464844 193.6875 663.082031 196.042969 661.90625 C 198.398438 660.726562 202.546875 658.425781 205.3125 656.734375 C 208.027344 655.097656 210.382812 653.765625 210.589844 653.765625 C 210.742188 653.765625 213.355469 652.382812 216.378906 650.746094 C 219.398438 649.109375 222.882812 647.164062 224.164062 646.5 C 227.746094 644.605469 231.539062 641.636719 238.503906 635.289062 C 246.542969 627.917969 248.644531 625.816406 256.019531 617.628906 C 259.296875 613.992188 264.164062 608.925781 266.777344 606.367188 C 269.386719 603.808594 272.667969 600.480469 273.996094 598.945312 C 277.121094 595.464844 285.316406 584.714844 286.289062 582.769531 C 286.75 582 288.75 579.851562 290.796875 578.007812 C 292.847656 576.164062 294.996094 574.21875 295.5625 573.65625 C 298.839844 570.535156 302.375 568.28125 310.003906 564.390625 C 319.789062 559.425781 330.390625 552.464844 337.046875 546.628906 C 339.609375 544.378906 342.628906 541.972656 343.757812 541.253906 C 346.574219 539.515625 352.003906 534.652344 361.734375 525.285156 C 366.242188 520.933594 373.105469 514.484375 377.050781 510.953125 C 397.996094 492.011719 399.789062 490.324219 405.21875 483.976562 C 408.957031 479.625 414.082031 471.589844 415.15625 468.414062 C 415.464844 467.390625 416.179688 466.109375 416.691406 465.546875 C 417.257812 464.984375 417.769531 464.113281 417.871094 463.550781 C 418.023438 462.527344 418.792969 462.066406 424.171875 459.710938 C 426.167969 458.894531 429.035156 457.511719 430.574219 456.691406 C 432.109375 455.925781 434.875 454.746094 436.667969 454.132812 C 440.355469 452.90625 441.636719 452.238281 449.675781 447.273438 C 456.027344 443.382812 466.015625 435.757812 469.753906 431.917969 C 474.363281 427.257812 474.773438 426.953125 493.675781 414.566406 C 501.867188 409.242188 506.835938 405.65625 510.472656 402.535156 C 512.316406 401 517.132812 397.519531 521.230469 394.859375 C 525.328125 392.195312 530.296875 388.917969 532.292969 387.539062 C 534.289062 386.207031 537.261719 384.464844 538.953125 383.75 C 541.308594 382.726562 546.273438 379.089844 548.375 376.839844 C 548.527344 376.683594 549.757812 375.660156 551.191406 374.535156 C 555.136719 371.414062 560.925781 365.476562 566.917969 358.410156 C 569.9375 354.878906 573.0625 351.296875 573.832031 350.425781 C 575.675781 348.429688 585.355469 340.75 587.402344 339.675781 C 589.246094 338.703125 603.949219 328.671875 609.070312 324.882812 C 611.066406 323.398438 615.523438 320.328125 619.058594 318.023438 C 622.589844 315.773438 627.199219 312.648438 629.300781 311.113281 C 631.398438 309.578125 633.757812 308.042969 634.574219 307.683594 C 635.34375 307.324219 635.957031 306.863281 635.957031 306.609375 C 635.957031 306.40625 636.214844 306.199219 636.523438 306.199219 C 636.828125 306.199219 638.570312 305.125 640.414062 303.84375 C 647.839844 298.519531 659.519531 293.25 671.453125 289.769531 C 676.269531 288.335938 681.695312 286.492188 683.4375 285.671875 C 685.179688 284.855469 686.714844 284.1875 686.871094 284.1875 C 687.28125 284.1875 693.835938 280.042969 697.421875 277.535156 C 699.265625 276.203125 703.773438 273.542969 707.410156 271.546875 C 720.777344 264.277344 720.878906 264.226562 727.382812 259.414062 C 734.863281 253.886719 738.34375 250.097656 740.546875 245.132812 C 740.90625 244.363281 741.367188 243.75 741.570312 243.75 C 741.777344 243.75 741.980469 243.441406 741.980469 243.085938 C 741.980469 242.777344 743.054688 241.292969 744.335938 239.910156 C 749.050781 234.691406 749.664062 233.511719 749.664062 229.316406 C 749.664062 225.730469 749.5625 225.425781 748.074219 223.992188 C 746.539062 222.558594 746.4375 222.507812 741.621094 222.609375 C 737.011719 222.710938 730.304688 224.195312 728.972656 225.425781 C 728.664062 225.628906 727.945312 225.835938 727.28125 225.835938 C 726.667969 225.835938 723.285156 227.320312 719.855469 229.109375 C 716.371094 230.851562 712.171875 232.898438 710.480469 233.5625 C 708.792969 234.175781 707.050781 234.996094 706.640625 235.304688 C 706.230469 235.664062 703.667969 236.582031 701.007812 237.402344 C 695.882812 238.9375 695.320312 238.988281 678.367188 238.527344 C 671.300781 238.375 668.378906 239.449219 665.152344 243.441406 C 663.566406 245.492188 662.847656 247.433594 662.082031 251.683594 C 660.800781 259.003906 659.109375 262.894531 656.804688 264.175781 C 655.984375 264.632812 654.347656 265.605469 653.21875 266.324219 C 646.613281 270.367188 644.203125 271.597656 638.210938 274.003906 C 634.574219 275.488281 630.222656 277.175781 628.53125 277.789062 C 626.84375 278.40625 624.332031 279.480469 622.898438 280.09375 C 621.515625 280.757812 619.671875 281.476562 618.800781 281.679688 C 617.980469 281.9375 616.238281 282.347656 614.960938 282.703125 C 612.347656 283.371094 606.867188 285.570312 599.335938 288.898438 C 596.519531 290.175781 592.988281 291.609375 591.550781 292.070312 C 583.253906 294.835938 579.363281 296.882812 569.683594 303.589844 C 566.300781 305.996094 561.4375 309.320312 558.875 311.011719 C 556.367188 312.699219 553.34375 314.800781 552.214844 315.71875 C 551.089844 316.640625 548.273438 318.6875 545.96875 320.378906 C 540.027344 324.628906 530.347656 333.535156 522.765625 341.773438 C 519.128906 345.714844 515.289062 349.042969 512.523438 350.628906 C 503.816406 355.597656 502.996094 356.003906 499.359375 357.132812 C 497.875 357.59375 496.542969 358.207031 496.386719 358.410156 C 496.234375 358.667969 494.542969 359.382812 492.699219 359.945312 C 490.855469 360.511719 488.601562 361.429688 487.734375 361.945312 C 486.863281 362.457031 483.636719 363.886719 480.511719 365.066406 C 468.679688 369.570312 461.917969 372.285156 457.207031 374.28125 C 454.542969 375.457031 451.058594 376.890625 449.523438 377.453125 C 447.988281 378.015625 446.5 378.683594 446.195312 378.886719 C 445.9375 379.039062 444.65625 379.5 443.378906 379.859375 C 442.097656 380.21875 439.945312 380.984375 438.511719 381.546875 C 435.847656 382.675781 429.652344 384.722656 426.476562 385.59375 C 425.503906 385.847656 422.839844 386.15625 420.585938 386.257812 C 418.332031 386.410156 415.820312 386.667969 415.054688 386.820312 C 413.976562 387.128906 413.3125 386.921875 412.492188 386.15625 C 411.722656 385.4375 409.984375 384.925781 406.859375 384.464844 C 402.964844 383.851562 402.351562 383.648438 402.554688 382.878906 C 403.015625 381.242188 401.839844 381.292969 400.355469 382.929688 C 399.328125 384.058594 398.355469 384.515625 397.179688 384.621094 C 394.71875 384.722656 394.617188 384.722656 392.773438 385.488281 C 391.492188 386 390.929688 386.054688 390.46875 385.59375 C 390.160156 385.285156 388.625 385.027344 387.039062 385.027344 C 383.347656 385.027344 378.894531 383.851562 375.308594 381.957031 C 372.285156 380.371094 367.265625 378.628906 366.191406 378.835938 C 365.832031 378.886719 365.527344 378.628906 365.527344 378.273438 C 365.527344 377.964844 364.910156 376.789062 364.195312 375.765625 C 363.476562 374.6875 362.757812 372.949219 362.605469 371.824219 C 362.351562 370.082031 362.503906 369.722656 363.425781 369.417969 C 364.039062 369.261719 364.601562 368.496094 364.808594 367.726562 C 365.21875 365.78125 366.5 361.429688 367.011719 360.203125 C 367.265625 359.640625 367.984375 357.4375 368.648438 355.339844 C 369.265625 353.242188 370.085938 351.039062 370.441406 350.476562 C 370.800781 349.914062 371.464844 348.480469 371.875 347.253906 C 372.953125 344.285156 374.234375 341.519531 375.359375 339.882812 C 375.871094 339.164062 376.28125 338.039062 376.28125 337.476562 C 376.28125 336.859375 376.484375 335.992188 376.742188 335.480469 C 377 335.019531 377.816406 332.613281 378.585938 330.105469 C 380.070312 325.242188 379.917969 325.242188 382.632812 328.976562 C 384.628906 331.691406 390.210938 336.964844 393.441406 339.214844 C 394.875 340.1875 396.5625 341.417969 397.28125 341.980469 C 397.996094 342.59375 398.816406 343.054688 399.175781 343.054688 C 399.484375 343.054688 400.765625 343.824219 402.042969 344.796875 C 405.066406 347.097656 406.140625 347.660156 410.085938 348.941406 L 413.414062 350.066406 L 413.722656 353.601562 C 413.976562 357.132812 415.308594 360.5625 417.152344 362.660156 C 419.765625 365.578125 430.417969 367.933594 435.695312 366.703125 C 442.507812 365.117188 447.269531 358.460938 447.78125 349.761719 C 447.886719 347.660156 448.039062 345.921875 448.089844 345.871094 C 448.191406 345.769531 449.78125 345 451.726562 344.128906 C 454.132812 343.003906 456.027344 341.570312 458.078125 339.472656 C 465.707031 331.382812 468.578125 324.113281 470.726562 307.429688 C 471.1875 304.101562 471.804688 300.519531 472.058594 299.546875 C 472.367188 298.574219 472.570312 296.933594 472.570312 295.910156 C 472.570312 293.300781 470.320312 287.054688 468.472656 284.546875 C 466.988281 282.550781 466.9375 282.242188 466.9375 277.277344 C 466.9375 271.1875 466.527344 269.496094 464.378906 266.785156 C 463.097656 265.199219 462.378906 264.738281 461.203125 264.738281 C 459.714844 264.738281 455.925781 262.332031 453.46875 259.875 C 452.1875 258.644531 447.066406 254.652344 444.144531 252.757812 C 442.761719 251.785156 439.84375 249.636719 437.742188 247.894531 L 433.953125 244.773438 L 430.367188 244.773438 C 426.988281 244.773438 426.679688 244.875 424.425781 246.769531 C 423.144531 247.84375 421.25 249.226562 420.277344 249.839844 C 416.128906 252.402344 417.257812 250.507812 424.015625 243.648438 C 427.960938 239.65625 432.007812 235.097656 432.980469 233.511719 C 436.871094 227.523438 440.96875 222.8125 445.066406 219.640625 C 447.371094 217.898438 450.445312 215.390625 451.828125 214.113281 C 461.609375 205.257812 466.578125 200.957031 468.730469 199.625 C 469.859375 198.910156 471.085938 197.9375 471.496094 197.476562 C 471.855469 197.015625 472.726562 196.65625 473.339844 196.65625 C 474.007812 196.65625 474.621094 196.351562 474.773438 195.992188 C 474.929688 195.582031 477.183594 193.636719 479.84375 191.640625 C 484.097656 188.363281 490.394531 182.171875 494.339844 177.207031 C 497.976562 172.648438 505.503906 165.585938 509.449219 162.925781 C 515.082031 159.1875 521.589844 154.171875 523.484375 152.175781 C 524.355469 151.304688 525.53125 150.585938 526.144531 150.585938 C 526.8125 150.585938 527.476562 150.332031 527.632812 150.074219 C 527.785156 149.769531 528.503906 149.71875 529.167969 149.871094 C 529.835938 150.023438 532.035156 149.613281 534.289062 148.847656 C 536.492188 148.128906 538.644531 147.515625 539.105469 147.515625 C 539.566406 147.515625 540.796875 147.054688 541.871094 146.492188 C 543.816406 145.46875 548.683594 143.523438 551.960938 142.5 C 555.339844 141.476562 562.972656 140.351562 566.917969 140.351562 C 570.449219 140.351562 570.859375 140.246094 571.167969 139.273438 C 571.371094 138.609375 571.167969 137.894531 570.605469 137.226562 C 569.785156 136.355469 568.964844 136.253906 560.71875 136.253906 C 550.21875 136.253906 549.296875 135.4375 559.386719 135.078125 C 569.117188 134.71875 579.925781 133.898438 580.589844 133.492188 C 580.898438 133.285156 581.15625 132.570312 581.15625 131.902344 C 581.15625 129.394531 578.746094 129.140625 569.375 130.625 C 564.714844 131.390625 556.46875 130.984375 554.929688 129.90625 C 553.90625 129.191406 553.90625 129.140625 555.546875 128.320312 C 556.878906 127.65625 559.4375 127.449219 569.273438 127.195312 C 575.929688 127.042969 581.921875 126.683594 582.589844 126.476562 C 584.023438 125.914062 584.125 123.867188 582.691406 122.433594 C 581.71875 121.460938 581.207031 121.410156 567.632812 121.769531 C 553.136719 122.074219 551.960938 121.972656 551.960938 120.078125 C 551.960938 119.15625 554.265625 118.03125 557.082031 117.621094 C 561.128906 117.109375 570.554688 115.882812 573.574219 115.523438 C 575.164062 115.371094 576.75 114.859375 577.058594 114.5 C 577.980469 113.375 577.46875 112.042969 575.777344 111.222656 C 574.496094 110.609375 573.675781 110.609375 570.65625 111.121094 C 565.328125 112.09375 560.976562 112.707031 555.339844 113.21875 C 552.574219 113.476562 550.167969 113.835938 550.066406 113.9375 C 549.910156 114.089844 549.296875 113.988281 548.632812 113.730469 C 547.761719 113.425781 546.738281 113.730469 544.226562 115.113281 C 540.898438 116.957031 535.007812 118.851562 532.292969 118.851562 C 530.960938 118.851562 530.859375 118.75 531.113281 117.160156 C 531.269531 116.292969 531.625 114.601562 531.984375 113.476562 C 533.367188 108.714844 533.011719 104.570312 530.960938 102.726562 C 530.089844 101.90625 529.988281 101.957031 529.269531 103.085938 C 528.859375 103.699219 527.992188 105.746094 527.375 107.589844 C 526.710938 109.382812 525.632812 111.890625 524.96875 113.117188 C 524.304688 114.296875 522.972656 117.417969 522.050781 120.027344 C 520.152344 125.300781 518.925781 127.859375 516.363281 131.902344 C 515.339844 133.492188 514.726562 134.976562 514.878906 135.4375 C 515.03125 135.894531 514.929688 136.253906 514.621094 136.253906 C 514.316406 136.253906 512.933594 137.125 511.550781 138.148438 C 510.113281 139.222656 507.65625 140.757812 506.015625 141.628906 C 503.558594 142.859375 495.824219 147.464844 492.546875 149.613281 C 492.136719 149.871094 491.113281 150.484375 490.292969 150.996094 C 489.523438 151.457031 487.375 152.839844 485.582031 154.015625 C 483.738281 155.195312 481.433594 156.578125 480.355469 157.039062 C 479.332031 157.550781 476.875 159.238281 474.980469 160.773438 C 468.988281 165.636719 462.328125 170.089844 456.949219 172.75 C 451.058594 175.722656 444.605469 180.226562 440.765625 184.011719 C 436.820312 187.953125 431.085938 194.710938 428.269531 198.753906 C 426.320312 201.46875 424.121094 204.234375 420.585938 208.378906 C 419.714844 209.402344 418.179688 211.246094 417.257812 212.523438 C 416.28125 213.804688 414.082031 216.261719 412.441406 218.054688 C 410.75 219.792969 408.496094 222.457031 407.421875 223.941406 C 404.453125 227.882812 404.09375 228.34375 400.40625 232.234375 C 398.5625 234.230469 395.078125 238.121094 392.671875 240.882812 C 390.265625 243.648438 387.191406 246.976562 385.808594 248.304688 C 384.476562 249.585938 381.25 252.65625 378.738281 255.113281 C 376.230469 257.621094 374.027344 259.617188 373.824219 259.617188 C 372.644531 259.566406 369.316406 257.058594 368.496094 255.625 C 367.984375 254.703125 366.960938 253.320312 366.242188 252.554688 C 365.527344 251.785156 363.679688 249.535156 362.195312 247.589844 C 359.941406 244.519531 358.816406 243.597656 355.128906 241.496094 C 352.667969 240.167969 350.160156 238.527344 349.546875 237.914062 C 347.445312 235.917969 344.9375 232.796875 344.117188 231.054688 C 343.65625 230.183594 343.144531 229.417969 342.886719 229.417969 C 342.683594 229.417969 342.476562 229.160156 342.476562 228.855469 C 342.476562 228.546875 341.453125 226.703125 340.171875 224.757812 C 338.890625 222.8125 337.867188 221.074219 337.867188 220.921875 C 337.867188 220.765625 337.40625 219.949219 336.84375 219.179688 C 334.128906 215.339844 331.003906 208.226562 327.625 198.191406 C 325.625 192.152344 323.167969 185.855469 322.195312 184.21875 C 321.222656 182.582031 320.453125 180.992188 320.453125 180.738281 C 320.453125 180.480469 318.046875 177.921875 315.125 175.003906 C 312.207031 172.136719 307.800781 167.378906 305.34375 164.410156 C 302.9375 161.441406 300.015625 158.011719 298.890625 156.730469 C 296.023438 153.402344 290.746094 145.519531 290.746094 144.496094 C 290.746094 144.035156 289.925781 142.398438 288.902344 140.863281 C 287.878906 139.328125 286.597656 137.175781 286.085938 136.152344 C 285.574219 135.128906 283.984375 133.082031 282.601562 131.597656 C 281.066406 129.957031 279.835938 128.117188 279.476562 126.835938 C 278.710938 124.070312 279.53125 104.3125 280.503906 102.523438 C 280.914062 101.703125 281.015625 100.269531 280.808594 98.273438 C 280.554688 95.507812 280.65625 94.945312 282.296875 91.722656 C 285.113281 86.089844 284.652344 84.042969 280.554688 84.042969 C 278.761719 84.042969 277.738281 84.402344 276.40625 85.476562 Z M 305.085938 406.015625 C 305.085938 406.273438 304.984375 406.527344 304.882812 406.527344 C 304.730469 406.527344 304.472656 406.273438 304.320312 406.015625 C 304.164062 405.710938 304.269531 405.503906 304.523438 405.503906 C 304.832031 405.503906 305.085938 405.710938 305.085938 406.015625 Z M 305.085938 406.015625 " fill-opacity="1" fill-rule="nonzero"/></g><path fill="#ffffff" d="M 327.824219 452.773438 L 300.609375 427.042969 C 294.789062 419.683594 290.628906 412.949219 288.121094 406.84375 C 287.101562 404.445312 286.167969 401.816406 285.320312 398.949219 L 284.125 394.425781 C 283.378906 391.277344 282.746094 387.808594 282.234375 384.011719 C 281.71875 380.183594 281.34375 376.066406 281.113281 371.652344 L 280.886719 364.902344 C 280.816406 360.285156 280.925781 355.554688 281.21875 350.707031 C 281.507812 345.863281 282.007812 341.023438 282.714844 336.191406 L 283.953125 329.039062 L 285.542969 322.074219 L 287.503906 315.390625 L 289.859375 309.074219 L 292.628906 303.21875 L 295.820312 297.890625 L 299.410156 293.066406 C 301.933594 290.015625 304.675781 287.242188 307.632812 284.742188 C 308.914062 283.242188 313.71875 279.960938 322.046875 274.894531 C 327.09375 271.917969 336.140625 267.765625 349.195312 262.445312 L 346.289062 294.902344 L 327.824219 452.773438 " fill-opacity="1" fill-rule="nonzero"/><path fill="#ffffff" d="M 452.09375 388.550781 L 436.023438 392.328125 C 429.417969 388.742188 423.023438 385.597656 416.84375 382.890625 C 412.746094 381.140625 408.902344 379.910156 405.3125 379.199219 C 403.523438 378.859375 401.820312 378.699219 400.203125 378.71875 L 397.851562 378.890625 C 396.332031 379.101562 394.890625 379.433594 393.519531 379.878906 C 393.367188 379.839844 390.839844 380.808594 385.945312 382.789062 C 384.769531 383.238281 383.613281 383.566406 382.480469 383.78125 C 381.34375 383.992188 380.214844 384.011719 379.085938 383.832031 L 377.378906 383.363281 C 376.234375 382.914062 375.074219 382.210938 373.902344 381.261719 L 372.132812 379.683594 C 370.945312 378.515625 369.75 377.167969 368.542969 375.636719 C 365.527344 371.902344 361.226562 365.273438 355.636719 355.75 C 355.769531 364.894531 356.582031 371.640625 358.078125 375.976562 C 358.640625 377.730469 359.371094 379.398438 360.265625 380.976562 L 361.765625 383.261719 C 362.859375 384.738281 364.179688 386.097656 365.730469 387.332031 C 368.925781 389.757812 372.863281 391.789062 377.546875 393.425781 C 379.855469 394.261719 382.253906 395.042969 384.742188 395.777344 L 399.808594 400.03125 L 403.441406 401.140625 L 406.921875 402.316406 C 409.179688 403.125 411.316406 403.992188 413.332031 404.914062 C 419.695312 407.535156 427.96875 412.964844 438.144531 421.199219 L 452.09375 388.550781 " fill-opacity="1" fill-rule="nonzero"/></svg>