<svg xmlns="http://www.w3.org/2000/svg" xmlns:xlink="http://www.w3.org/1999/xlink" width="1080" zoomAndPan="magnify" viewBox="0 0 810 809.999993" height="1080" preserveAspectRatio="xMidYMid meet" version="1.0"><defs><clipPath id="803feb144f"><path d="M 39 111 L 773 111 L 773 701.582031 L 39 701.582031 Z M 39 111 " clip-rule="nonzero"/></clipPath></defs><g clip-path="url(#803feb144f)"><path fill="#ffffff" d="M 41.953125 421.144531 C 45.664062 421.144531 49.027344 418.011719 52.160156 415.921875 C 54.828125 414.183594 58.078125 413.136719 61.210938 411.863281 C 59.121094 413.835938 56.800781 415.574219 54.597656 417.546875 C 52.042969 419.984375 48.5625 421.609375 46.242188 424.160156 C 43.113281 427.410156 45.78125 430.773438 49.722656 429.148438 C 53.089844 427.757812 55.640625 425.320312 58.890625 423.464844 C 61.671875 421.839844 64.574219 419.867188 67.589844 418.589844 C 65.964844 420.332031 64.339844 421.957031 62.71875 423.582031 C 60.398438 426.132812 57.382812 428.105469 55.175781 430.65625 C 52.507812 433.675781 53.667969 437.734375 57.730469 435.53125 C 60.863281 433.90625 64.226562 431.933594 67.011719 429.613281 C 69.792969 427.292969 72.347656 425.320312 75.710938 424.277344 C 74.203125 428.453125 71.535156 432.28125 70.953125 436.691406 C 70.839844 437.96875 70.492188 441.449219 72.347656 441.914062 C 74.085938 442.378906 75.59375 439.128906 76.175781 437.96875 C 77.335938 435.996094 78.261719 433.789062 79.886719 432.28125 C 81.28125 431.007812 83.136719 430.195312 84.644531 428.917969 C 88.125 426.015625 89.050781 421.957031 90.328125 417.664062 C 91.371094 414.296875 92.878906 411.050781 94.390625 407.800781 C 96.824219 406.871094 100.304688 406.292969 101.699219 405.828125 C 105.179688 404.785156 108.773438 404.550781 112.253906 403.390625 C 118.289062 401.304688 125.828125 400.027344 132.324219 400.027344 C 139.167969 400.027344 146.015625 399.5625 152.859375 399.5625 C 159.820312 399.5625 166.546875 398.402344 173.507812 398.402344 C 176.757812 398.402344 180.007812 397.9375 183.253906 397.9375 C 185.691406 397.9375 188.589844 398.285156 190.910156 397.242188 C 191.957031 398.984375 193.347656 400.492188 194.972656 401.304688 C 200.539062 403.972656 203.207031 406.523438 210.054688 409.078125 C 214.347656 410.703125 217.015625 412.90625 221.074219 413.484375 C 220.726562 415.109375 220.726562 416.734375 220.957031 417.546875 C 221.886719 420.449219 225.714844 420.214844 228.035156 421.375 C 231.285156 423 233.023438 424.394531 235.34375 427.175781 C 237.433594 429.730469 239.867188 431.238281 242.304688 433.210938 C 243.8125 434.488281 245.320312 435.183594 246.945312 436.113281 C 247.640625 436.460938 248.570312 436.808594 249.382812 437.273438 C 249.496094 438.082031 249.496094 438.78125 249.613281 439.59375 C 249.960938 441.914062 251.121094 443.421875 251.816406 445.625 C 252.398438 447.367188 252.515625 449.339844 253.441406 450.847656 C 254.371094 452.238281 256.109375 453.285156 257.386719 454.328125 C 260.285156 456.648438 263.304688 457.113281 266.433594 458.621094 C 269.21875 460.011719 272.46875 462.449219 274.671875 464.769531 C 275.949219 466.164062 278.386719 468.25 279.894531 470.339844 C 277.804688 473.007812 275.367188 475.210938 273.046875 477.648438 C 270.265625 480.550781 268.40625 484.378906 267.363281 488.207031 C 265.042969 496.214844 263.417969 504.21875 265.507812 512.457031 C 266.203125 515.125 267.132812 517.445312 268.523438 519.417969 C 267.480469 522.320312 267.246094 526.03125 268.175781 528.816406 C 269.683594 533.691406 270.84375 538.214844 277.226562 540.1875 C 280.820312 541.234375 289.636719 542.277344 292.304688 538.332031 C 293.929688 539.027344 295.785156 539.492188 297.292969 539.492188 C 298.6875 539.492188 300.195312 539.261719 301.472656 539.027344 C 302.285156 538.910156 303.09375 538.5625 303.90625 538.332031 C 305.648438 540.304688 307.96875 541.929688 310.519531 541.234375 C 314.234375 540.1875 315.855469 535.546875 318.523438 533.226562 L 318.410156 533.109375 C 319.570312 532.183594 320.730469 531.253906 321.890625 530.09375 C 324.90625 526.730469 328.503906 522.785156 330.011719 518.257812 C 331.519531 513.617188 330.589844 508.511719 330.824219 503.640625 C 332.214844 504.453125 333.492188 505.265625 334.882812 506.074219 C 338.015625 507.816406 341.148438 511.414062 344.511719 512.457031 C 347.179688 513.386719 350.3125 511.761719 353.328125 511.296875 C 353.910156 512.109375 354.371094 512.921875 354.605469 513.386719 C 356.230469 516.632812 357.273438 520.230469 358.433594 523.828125 C 358.898438 525.453125 359.011719 527.542969 359.710938 529.050781 C 360.523438 530.789062 361.683594 530.90625 363.304688 530.789062 C 363.304688 531.835938 363.304688 532.761719 363.421875 533.457031 C 363.652344 535.199219 363.886719 537.054688 364.234375 538.910156 C 364.003906 546.917969 365.742188 560.378906 367.019531 567.6875 C 367.714844 571.746094 369.570312 577.433594 369.6875 581.609375 C 369.800781 585.789062 370.152344 589.847656 369.105469 593.792969 C 368.0625 597.855469 367.25 601.335938 366.785156 605.511719 C 366.324219 609.6875 366.4375 615.492188 366.785156 619.667969 C 367.480469 628.136719 368.875 635.214844 368.292969 643.917969 C 367.832031 652.386719 366.671875 660.625 366.785156 669.210938 C 366.785156 669.328125 366.785156 669.441406 366.785156 669.558594 C 366.089844 671.996094 366.207031 674.898438 365.625 677.101562 C 365.164062 679.074219 364.464844 680.929688 363.886719 682.902344 C 361.796875 683.597656 359.710938 684.292969 357.621094 684.527344 C 355.070312 684.757812 351.9375 683.597656 349.734375 685.222656 C 346.484375 687.542969 342.074219 695.664062 349.035156 695.085938 C 351.355469 694.851562 353.792969 694.738281 356.113281 694.273438 C 357.503906 696.476562 359.363281 698.566406 361.683594 699.496094 C 367.597656 701.582031 374.210938 700.421875 380.359375 700.421875 C 383.609375 700.421875 386.855469 701.582031 390.105469 701.351562 C 392.425781 701.234375 394.746094 700.65625 396.949219 700.191406 C 399.269531 700.191406 401.589844 700.074219 403.910156 699.957031 C 407.042969 699.84375 410.289062 699.609375 413.421875 699.609375 C 416.441406 699.609375 419.921875 700.65625 422.703125 699.726562 C 425.605469 698.914062 425.257812 696.363281 422.9375 694.96875 C 421.082031 693.925781 418.875 693.460938 416.789062 692.648438 C 417.019531 692.070312 416.789062 690.910156 416.441406 690.445312 C 415.859375 689.515625 414.582031 688.9375 413.65625 688.472656 C 409.828125 686.617188 405.652344 687.078125 401.820312 685.6875 C 400.546875 685.222656 394.863281 683.25 392.078125 682.785156 C 392.191406 681.160156 392.308594 679.539062 392.425781 677.914062 C 392.65625 673.96875 392.65625 670.023438 393.121094 666.078125 C 393.46875 662.480469 394.398438 659.464844 394.628906 655.75 C 394.628906 655.519531 394.746094 655.171875 394.746094 654.941406 C 395.558594 650.878906 396.253906 646.816406 397.183594 642.757812 C 398.804688 635.445312 398.804688 627.90625 399.964844 620.480469 C 401.125 613.054688 401.472656 605.628906 402.285156 598.203125 C 403.097656 591.125 401.9375 584.394531 401.242188 577.433594 C 400.894531 573.953125 401.011719 570.355469 400.894531 566.757812 C 400.777344 564.785156 401.242188 555.851562 401.011719 550.863281 C 401.9375 541.929688 402.171875 532.761719 402.171875 523.480469 C 405.417969 522.320312 405.765625 519.417969 405.417969 515.472656 C 405.070312 511.992188 403.792969 508.628906 402.980469 505.265625 C 402.054688 501.433594 402.054688 497.488281 401.707031 493.660156 C 401.011719 487.164062 396.253906 480.203125 397.066406 473.472656 C 397.183594 473.007812 397.296875 472.542969 397.414062 472.078125 C 398.109375 468.019531 398.109375 463.609375 399.5 459.664062 C 400.777344 455.835938 404.375 453.398438 406.113281 449.917969 C 407.972656 446.089844 408.550781 442.144531 409.710938 438.082031 C 411.800781 430.542969 420.617188 429.035156 421.542969 421.144531 C 422.007812 417.429688 421.660156 413.601562 422.007812 409.890625 C 422.472656 405.480469 425.371094 403.972656 428.621094 401.765625 C 432.566406 399.097656 431.40625 395.734375 429.898438 391.789062 C 428.851562 389.121094 428.273438 386.914062 428.039062 384.363281 C 429.433594 382.621094 430.941406 380.765625 432.679688 379.488281 C 435.464844 377.402344 438.597656 375.542969 441.382812 373.457031 C 441.960938 374.5 442.773438 375.195312 444.050781 375.195312 C 446.023438 375.195312 447.878906 373.339844 449.621094 372.410156 C 451.707031 371.25 453.796875 370.089844 455.882812 368.929688 C 457.738281 367.886719 460.058594 367.304688 460.640625 364.984375 C 460.988281 363.824219 460.871094 362.550781 460.757812 361.273438 C 461.917969 361.390625 463.078125 361.503906 464.238281 361.273438 C 466.558594 360.925781 467.949219 359.300781 469.339844 357.558594 C 471.199219 355.238281 472.589844 354.777344 475.257812 353.730469 C 479.203125 352.105469 483.148438 350.132812 485.929688 346.652344 C 486.277344 346.769531 486.628906 346.769531 486.976562 346.886719 C 488.714844 347.351562 490.570312 347.351562 492.3125 347 C 500.199219 345.492188 504.726562 338.300781 511.917969 335.398438 C 516.210938 333.660156 520.851562 332.613281 524.679688 329.945312 C 526.304688 328.785156 528.042969 327.972656 529.667969 326.8125 C 530.363281 326.347656 530.945312 325.652344 531.640625 324.957031 C 535.003906 325.769531 538.484375 326.117188 541.964844 325.421875 C 545.445312 324.722656 548.695312 322.636719 552.058594 321.359375 C 553.683594 320.78125 555.308594 319.851562 557.046875 319.503906 C 559.019531 319.039062 560.644531 319.503906 562.617188 319.734375 C 566.558594 320.199219 569.226562 320.664062 572.824219 318.574219 C 575.375 317.183594 578.394531 316.71875 580.945312 315.441406 C 583.960938 317.648438 588.023438 318.34375 591.503906 316.949219 C 594.054688 316.023438 596.375 316.253906 599.042969 315.789062 C 601.363281 315.441406 603.566406 314.398438 605.886719 313.585938 C 608.324219 312.65625 610.296875 312.078125 612.734375 313.003906 C 615.285156 313.933594 617.488281 314.863281 620.273438 314.28125 C 622.59375 313.703125 624.449219 312.773438 626.886719 312.773438 C 629.4375 312.773438 631.527344 312.542969 633.964844 311.960938 C 635.933594 311.496094 638.953125 311.84375 640.460938 310.105469 C 641.503906 308.828125 641.503906 307.089844 641.15625 305.347656 C 642.433594 305 643.824219 304.417969 644.402344 304.1875 C 647.1875 303.375 650.554688 301.636719 653.222656 300.589844 C 658.789062 298.386719 662.503906 296.761719 668.765625 294.90625 C 673.292969 293.511719 677.933594 291.886719 682.339844 289.800781 C 686.75 287.710938 690.113281 286.085938 696.492188 283.882812 C 698.582031 283.1875 700.554688 282.257812 702.757812 281.445312 C 703.800781 281.097656 705.3125 280.75 706.703125 280.054688 C 708.09375 282.492188 710.53125 283.535156 713.316406 282.140625 C 715.984375 280.75 718.652344 279.589844 721.550781 279.242188 C 722.25 280.054688 722.828125 280.980469 723.757812 281.5625 C 725.265625 282.605469 726.65625 282.605469 728.398438 282.722656 C 730.136719 282.839844 731.878906 283.652344 733.617188 284 C 736.632812 284.695312 739.765625 285.042969 742.898438 284.8125 C 746.496094 286.085938 749.859375 287.710938 753.339844 289.683594 C 757.75 292.121094 764.246094 294.210938 768.886719 291.078125 C 773.757812 287.828125 771.671875 280.632812 771.207031 275.761719 C 770.625 269.726562 771.785156 263.460938 770.511719 257.542969 C 769.351562 252.554688 766.332031 248.84375 762.851562 245.363281 C 761.34375 241.648438 759.257812 237.585938 756.125 235.382812 C 752.296875 232.714844 747.421875 238.980469 744.40625 241.070312 C 743.132812 241.996094 742.203125 242.808594 741.507812 243.738281 C 740.347656 243.738281 739.070312 243.738281 737.910156 243.851562 C 735.9375 244.085938 733.964844 244.550781 731.992188 244.898438 C 730.136719 245.128906 727.238281 244.433594 725.613281 245.128906 C 724.105469 245.710938 723.523438 247.914062 722.480469 249.191406 C 722.25 249.421875 722.132812 249.65625 721.902344 250.003906 C 718.421875 250.464844 714.707031 252.089844 711.34375 252.4375 C 709.601562 252.671875 706.585938 252.4375 705.3125 253.949219 C 704.5 254.875 704.152344 256.5 703.917969 258.125 C 702.292969 258.472656 700.207031 259.167969 699.277344 259.285156 C 696.726562 259.75 694.289062 259.980469 691.621094 260.328125 C 686.632812 260.910156 681.527344 261.140625 676.425781 261.488281 C 671.320312 261.835938 666.097656 261.375 660.996094 260.910156 C 655.890625 260.445312 651.480469 258.472656 646.261719 258.472656 C 642.199219 258.472656 636.980469 257.890625 632.917969 258.820312 C 631.992188 257.3125 630.714844 256.152344 628.625 255.921875 C 625.378906 255.570312 623.523438 257.542969 620.621094 258.589844 C 617.835938 259.632812 614.820312 258.9375 611.921875 259.285156 C 609.019531 259.632812 606.234375 260.5625 603.335938 261.257812 C 601.945312 261.605469 600.4375 262.183594 599.042969 262.765625 C 596.839844 260.910156 594.054688 261.140625 591.269531 261.835938 C 588.488281 262.648438 585.355469 261.835938 582.570312 261.140625 C 579.4375 260.328125 576.421875 259.863281 573.171875 259.75 C 570.039062 259.515625 567.023438 260.445312 563.890625 260.675781 C 560.410156 261.023438 556.929688 260.910156 553.449219 261.375 C 550.316406 261.835938 547.1875 262.765625 544.167969 262.765625 C 540.339844 262.765625 537.558594 263.578125 533.960938 264.855469 C 530.132812 266.128906 526.417969 266.59375 522.589844 267.40625 C 518.414062 268.335938 514.121094 269.148438 509.945312 269.960938 C 507.859375 270.421875 505.074219 270.773438 502.753906 271.46875 C 500.78125 271.46875 498.691406 271.351562 496.71875 271.351562 C 492.660156 271.351562 488.484375 272.046875 484.308594 272.28125 C 475.722656 272.742188 465.859375 273.324219 457.507812 271.003906 C 453.910156 269.960938 450.429688 269.148438 446.835938 268.800781 C 446.140625 267.988281 445.441406 267.058594 444.632812 266.246094 C 442.425781 263.808594 439.992188 261.488281 437.902344 258.820312 C 434.074219 253.949219 430.941406 248.84375 427.578125 243.738281 C 424.328125 238.863281 419.921875 234.804688 416.789062 229.929688 C 415.046875 227.027344 413.65625 223.894531 412.03125 220.878906 C 410.523438 217.980469 408.433594 215.425781 406.578125 212.757812 C 403.445312 208.347656 400.199219 203.128906 396.023438 199.53125 C 396.023438 198.136719 396.023438 196.746094 396.023438 195.46875 C 396.023438 191.523438 395.324219 188.277344 393.238281 185.027344 C 392.078125 183.171875 389.988281 180.5 388.945312 177.832031 C 389.175781 176.558594 389.410156 175.28125 389.757812 174.121094 C 390.222656 172.960938 390.683594 171.800781 391.148438 170.640625 C 393.816406 171.453125 396.484375 171.914062 399.269531 171.21875 C 404.953125 169.828125 408.320312 163.5625 407.390625 157.644531 C 406.460938 151.960938 399.734375 149.871094 396.253906 145.925781 L 396.136719 146.042969 C 391.960938 141.285156 387.4375 136.875 383.027344 132.464844 C 377.460938 127.011719 372.355469 120.515625 365.625 116.453125 C 359.710938 112.859375 347.644531 108.332031 342.773438 115.992188 C 338.132812 123.183594 344.28125 134.207031 348.222656 140.242188 C 352.402344 146.621094 358.085938 151.609375 363.769531 156.484375 C 364.234375 156.832031 364.699219 157.179688 365.046875 157.644531 C 364.8125 158.457031 364.464844 159.386719 364.003906 160.195312 C 359.941406 159.734375 354.722656 157.875 351.472656 159.734375 C 349.734375 160.660156 349.035156 162.867188 347.875 164.488281 C 346.484375 166.460938 344.628906 167.855469 343.121094 169.59375 C 339.640625 173.773438 340.21875 179.691406 341.03125 184.796875 C 341.726562 189.785156 342.539062 194.425781 342.65625 199.648438 C 342.773438 205.332031 344.976562 208.464844 349.5 210.554688 C 349.847656 212.410156 350.082031 214.496094 350.542969 216.121094 C 351.355469 218.675781 351.9375 221.226562 352.632812 223.78125 C 354.023438 229.464844 355.300781 235.152344 356.578125 240.835938 C 357.96875 246.523438 359.363281 251.742188 361.796875 257.082031 C 364.234375 262.183594 365.625 267.988281 368.292969 272.859375 C 370.152344 276.226562 371.542969 279.820312 373.050781 283.300781 C 371.660156 285.738281 370.265625 288.175781 368.527344 290.613281 C 366.554688 293.164062 367.019531 296.066406 368.410156 298.617188 C 365.164062 303.257812 361.21875 307.203125 357.042969 310.683594 C 350.3125 308.015625 341.726562 312.65625 335.8125 315.09375 C 332.5625 316.488281 328.15625 317.414062 325.71875 320.199219 C 323.398438 322.984375 322.46875 327.625 321.773438 331.105469 C 321.308594 333.660156 320.496094 336.09375 319.800781 338.648438 C 318.523438 339.808594 317.015625 341.546875 316.207031 342.128906 C 313.769531 343.867188 311.679688 345.726562 309.359375 347.582031 C 307.039062 349.554688 305.53125 352.105469 303.558594 354.3125 C 301.703125 356.632812 299.5 358.488281 297.527344 360.691406 C 293.464844 365.21875 289.871094 369.511719 285.460938 373.570312 C 282.5625 376.242188 278.617188 378.445312 275.019531 379.953125 C 272.585938 380.882812 270.496094 382.273438 268.640625 383.78125 C 267.246094 383.78125 265.855469 383.667969 265.390625 383.550781 C 263.535156 383.085938 261.445312 381.925781 259.824219 380.882812 C 256.691406 378.910156 251.933594 376.242188 248.105469 375.894531 C 246.597656 375.777344 245.4375 376.9375 244.507812 378.214844 C 242.539062 377.515625 240.679688 376.355469 238.707031 375.542969 C 236.273438 374.617188 233.71875 373.921875 231.167969 373.109375 C 225.832031 371.601562 220.609375 370.789062 215.273438 369.511719 C 204.367188 367.074219 193.347656 363.476562 182.210938 362.78125 C 177.6875 362.433594 170.839844 362.433594 165.96875 364.289062 C 155.875 364.753906 146.015625 366.957031 136.039062 369.277344 C 130.238281 370.554688 124.785156 373.222656 119.101562 374.730469 C 113.761719 376.242188 108.773438 378.328125 103.320312 379.722656 C 98.21875 380.996094 90.675781 380.882812 87.429688 385.988281 C 86.5 385.753906 85.6875 385.753906 84.875 385.753906 C 82.789062 385.871094 80.699219 385.871094 78.726562 386.21875 C 73.855469 386.914062 71.1875 387.960938 67.589844 390.394531 C 66.777344 390.859375 65.503906 391.554688 64.457031 392.253906 C 61.558594 392.949219 58.542969 393.296875 55.640625 393.992188 C 52.160156 394.804688 48.679688 395.386719 45.082031 396.082031 C 43.113281 396.429688 37.195312 398.632812 40.328125 401.652344 C 42.878906 404.085938 48.5625 401.652344 51.464844 401.535156 C 54.597656 401.417969 57.730469 402.113281 60.746094 402.464844 C 58.078125 404.085938 55.0625 405.363281 52.507812 407.21875 C 49.492188 409.539062 46.824219 411.859375 43.691406 413.949219 C 41.371094 415.804688 36.035156 421.261719 41.953125 421.144531 Z M 318.175781 343.40625 C 318.175781 343.519531 318.175781 343.636719 318.175781 343.40625 Z M 318.175781 343.40625 " fill-opacity="1" fill-rule="nonzero"/></g></svg>