<svg xmlns="http://www.w3.org/2000/svg" xmlns:xlink="http://www.w3.org/1999/xlink" width="1080" zoomAndPan="magnify" viewBox="0 0 810 809.999993" height="1080" preserveAspectRatio="xMidYMid meet" version="1.0"><defs><clipPath id="2d147ed894"><path d="M 59 56 L 751.957031 56 L 751.957031 759 L 59 759 Z M 59 56 " clip-rule="nonzero"/></clipPath></defs><g clip-path="url(#2d147ed894)"><path fill="#ffffff" d="M 751.578125 729.917969 C 751.363281 729.015625 750.179688 727.609375 749.515625 727.660156 C 742.738281 728.160156 741.515625 721.582031 735.148438 721.664062 C 724.335938 721.800781 709.519531 712.222656 699.113281 708.558594 C 666.269531 696.992188 685.09375 611.671875 686.898438 590.878906 C 688.28125 574.972656 686.730469 564.214844 691.746094 539.652344 C 692.714844 534.902344 690.117188 527.289062 689.640625 516.503906 C 689.386719 510.730469 687.75 505.574219 681.921875 502.6875 C 672.050781 497.796875 661.59375 495.121094 650.691406 494.128906 C 606.425781 490.105469 631.898438 490.457031 593.726562 487.308594 C 564.390625 484.886719 531.871094 491.40625 532.035156 480.804688 C 533.320312 397.34375 455.523438 323.109375 455 322.378906 C 441.355469 303.5 432.054688 308.507812 411.238281 293.15625 C 353.492188 250.570312 358.292969 229.34375 325.632812 201.195312 C 232.972656 121.316406 309.921875 173.226562 194.363281 93 C 187.515625 88.246094 181.835938 81.316406 172.664062 80.492188 C 160.046875 79.363281 137.1875 66.050781 133.296875 65.96875 C 113.027344 65.546875 84.675781 49.660156 91.457031 59.332031 C 101.179688 73.195312 110.011719 67.238281 141.136719 92.699219 C 146.53125 97.113281 152.046875 101.890625 160.070312 99.761719 C 174.117188 96.035156 231.589844 159.671875 231.933594 160.113281 C 246.25 178.4375 254.171875 172.816406 262.875 188.832031 C 273.070312 207.601562 266.617188 202.546875 296.113281 233.671875 C 300.519531 238.320312 300.238281 238.78125 310.5 265.296875 C 310.917969 266.378906 311.90625 267.757812 310.765625 268.640625 C 309.441406 269.664062 307.839844 269.292969 306.378906 268.273438 C 296.589844 261.457031 290.742188 269.320312 287.042969 264.019531 C 283.957031 259.605469 281.082031 259.066406 276.523438 261.929688 C 272.914062 264.199219 269.535156 266.757812 266.53125 269.851562 C 258.644531 277.972656 254.761719 267.652344 247.445312 271.925781 C 242.207031 274.988281 236.0625 276.179688 231.070312 279.804688 C 229.867188 280.675781 228.433594 280.765625 226.882812 280.265625 C 221.84375 278.640625 223.878906 282.453125 213.808594 289.988281 C 209.582031 293.152344 210.222656 302.855469 204.363281 309.039062 C 202.160156 311.367188 203.582031 315.316406 202.621094 319.351562 C 198.054688 338.519531 204.691406 349.671875 218.453125 374.117188 C 227.84375 390.789062 241.96875 381.472656 250.148438 385.445312 C 251.539062 386.121094 252.300781 385.992188 251.636719 388.050781 C 249.683594 394.082031 251.714844 398.59375 256.84375 401.890625 C 269.167969 409.8125 258.628906 426.722656 272.761719 427.386719 C 278.125 427.640625 281.699219 432.316406 280.40625 437.625 C 277.351562 450.171875 282.035156 446.296875 282.175781 449.972656 C 283.082031 474.289062 271.722656 479.222656 261.398438 502.597656 C 253.359375 520.792969 245.042969 521.21875 234.660156 531.242188 C 219.097656 546.265625 198.109375 576.140625 185.507812 586.207031 C 159.859375 606.699219 162.71875 615.042969 150.117188 623.683594 C 136.011719 633.351562 146.265625 634.113281 130.828125 655.167969 C 124.574219 663.695312 116.71875 683.566406 95.90625 695.035156 C 86.304688 700.324219 81.195312 710.621094 71.367188 715.363281 C 70.613281 715.726562 70.210938 718.316406 66 719.328125 C 60.714844 720.59375 58.304688 725.804688 59.960938 730.738281 C 60.53125 732.449219 62.449219 732.117188 62.84375 733.714844 C 65.023438 742.625 71.320312 742.835938 79.78125 747.261719 C 105.421875 760.671875 123.949219 755.734375 129.785156 758.070312 C 133.738281 759.652344 136.460938 756.238281 133.34375 752.714844 C 126.25 744.6875 128.371094 740.152344 120.292969 736.234375 C 106.34375 729.472656 119.558594 704.703125 169.082031 684.746094 C 208.015625 669.054688 212.972656 655.265625 228.535156 650.519531 C 243.546875 645.941406 250.238281 639.957031 270.453125 637.753906 C 280.671875 636.640625 289.386719 630.847656 299.597656 629.074219 C 338.925781 622.246094 373.628906 589.03125 398.558594 582.601562 C 416 578.105469 430.597656 568.507812 437.179688 565.335938 C 441.046875 563.472656 445.417969 562.722656 448.019531 558.722656 C 451.210938 553.8125 497.316406 565.074219 499.144531 565.039062 C 527.84375 564.484375 566.5 568.511719 588.828125 559.636719 C 607.433594 552.238281 622.046875 550.445312 638.292969 550.554688 C 642.339844 550.582031 643.273438 550.378906 640.632812 557.425781 C 632.480469 579.179688 633.800781 600.84375 638.300781 615.078125 C 644.328125 634.140625 641.242188 637.738281 642.625 643.414062 C 647.007812 661.382812 644.1875 660.019531 645.222656 694.382812 C 645.335938 698.117188 644.082031 701.824219 643.710938 705.523438 C 643.027344 712.320312 639.6875 718.5625 639.203125 725.347656 C 638.773438 731.441406 643.113281 733.898438 648.757812 733.964844 C 649.007812 733.96875 649.261719 733.964844 649.511719 733.960938 C 674.300781 733.542969 699.109375 734.136719 723.898438 733.652344 C 731.867188 733.496094 739.84375 732.074219 747.890625 732.296875 C 748.578125 732.316406 751.882812 731.226562 751.578125 729.917969 Z M 321.988281 284.859375 C 329.167969 288.835938 330.03125 296.027344 332.121094 302.453125 C 333.054688 305.324219 331.996094 305.730469 327.839844 305.027344 C 325.941406 304.703125 323.65625 305.042969 322.722656 303.09375 C 318.53125 294.347656 318.535156 297.539062 321.988281 284.859375 Z M 307.539062 353.160156 C 311.441406 357.429688 318.59375 370.339844 309.703125 372.3125 C 304.316406 373.507812 309.617188 364.621094 304.109375 360.730469 C 301.773438 359.082031 305.140625 350.535156 307.539062 353.160156 Z M 400.644531 461.285156 C 400.46875 464.6875 399.136719 461.148438 392.5 469.511719 C 389.886719 472.804688 385.796875 475.628906 385.792969 480.582031 C 385.792969 481.527344 385.6875 482.367188 384.992188 482.871094 C 381.089844 485.710938 381.371094 490.972656 378.214844 494.378906 C 376.828125 495.878906 379.207031 498.554688 378.316406 500.996094 C 375.933594 507.554688 375.441406 502.976562 367.078125 511.828125 C 342.632812 537.71875 315.230469 560.210938 286.746094 581.4375 C 264.019531 598.375 251.699219 592.601562 201.285156 608.144531 C 225.523438 581.566406 254.246094 588.050781 299.605469 510.0625 C 308.5625 494.664062 312.457031 497.6875 322.746094 472.605469 C 325.898438 464.925781 331.207031 458.335938 333.949219 450.421875 C 334.703125 448.238281 336.609375 447.253906 339.152344 447.144531 C 339.964844 447.105469 361.980469 445.960938 363.53125 445.097656 C 370.402344 441.277344 374.820312 446.992188 383.269531 444.421875 C 387.164062 443.238281 389.335938 450.152344 397.320312 446.769531 C 398.773438 446.152344 400.425781 445.792969 401.816406 447.023438 C 403.308594 448.347656 401.714844 449.429688 401.425781 450.613281 C 401.316406 451.078125 400.992188 451.78125 401.179688 451.980469 C 404.34375 455.28125 400.804688 458.195312 400.644531 461.285156 Z M 400.644531 461.285156 " fill-opacity="1" fill-rule="nonzero"/></g><path fill="#ffffff" d="M 309.496094 367.515625 C 309.378906 367.585938 309.261719 367.652344 309.144531 367.722656 C 309.285156 367.679688 309.425781 367.636719 309.566406 367.597656 Z M 309.496094 367.515625 " fill-opacity="1" fill-rule="nonzero"/><path fill="#ffffff" d="M 310.070312 366.527344 C 310.179688 366.335938 310.289062 366.144531 310.398438 365.957031 C 310.8125 366.625 310.273438 366.421875 309.96875 366.429688 C 309.972656 366.433594 310.070312 366.527344 310.070312 366.527344 Z M 310.070312 366.527344 " fill-opacity="1" fill-rule="nonzero"/><path fill="#ffffff" d="M 309.566406 367.597656 C 309.347656 367.054688 309.425781 366.660156 310.070312 366.53125 C 310.070312 366.527344 309.972656 366.433594 309.96875 366.429688 C 309.804688 366.785156 309.640625 367.140625 309.488281 367.503906 C 309.496094 367.515625 309.566406 367.597656 309.566406 367.597656 Z M 309.566406 367.597656 " fill-opacity="1" fill-rule="nonzero"/></svg>