<svg xmlns="http://www.w3.org/2000/svg" xmlns:xlink="http://www.w3.org/1999/xlink" width="1080" zoomAndPan="magnify" viewBox="0 0 810 809.999993" height="1080" preserveAspectRatio="xMidYMid meet" version="1.0"><defs><clipPath id="bff86dfb8e"><path d="M 32 156.886719 L 778 156.886719 L 778 251 L 32 251 Z M 32 156.886719 " clip-rule="nonzero"/></clipPath><clipPath id="3c006ffcd4"><path d="M 32.410156 560 L 777.308594 560 L 777.308594 653.386719 L 32.410156 653.386719 Z M 32.410156 560 " clip-rule="nonzero"/></clipPath></defs><path fill="#ffffff" d="M 63.425781 358.777344 L 746.292969 358.777344 C 763.421875 358.777344 777.308594 375.921875 777.308594 389.820312 L 777.308594 420.867188 C 777.308594 438.074219 763.421875 451.976562 746.292969 451.976562 L 63.425781 451.976562 C 46.296875 451.976562 32.410156 434.765625 32.410156 420.867188 L 32.410156 389.820312 C 32.410156 372.675781 46.296875 358.777344 63.425781 358.777344 " fill-opacity="1" fill-rule="nonzero"/><g clip-path="url(#bff86dfb8e)"><path fill="#ffffff" d="M 63.425781 156.820312 L 746.292969 156.820312 C 763.421875 156.820312 777.308594 173.964844 777.308594 187.867188 L 777.308594 218.976562 C 777.308594 236.121094 763.421875 250.019531 746.292969 250.019531 L 63.425781 250.019531 C 46.296875 250.019531 32.410156 232.878906 32.410156 218.976562 L 32.410156 187.867188 C 32.410156 170.722656 46.296875 156.820312 63.425781 156.820312 " fill-opacity="1" fill-rule="nonzero"/></g><g clip-path="url(#3c006ffcd4)"><path fill="#ffffff" d="M 63.425781 560.664062 L 746.292969 560.664062 C 763.421875 560.664062 777.308594 577.875 777.308594 591.777344 L 777.308594 622.820312 C 777.308594 639.964844 763.421875 653.863281 746.292969 653.863281 L 63.425781 653.863281 C 46.296875 653.863281 32.410156 636.71875 32.410156 622.820312 L 32.410156 591.777344 C 32.410156 574.632812 46.296875 560.664062 63.425781 560.664062 " fill-opacity="1" fill-rule="nonzero"/></g></svg>