<svg xmlns="http://www.w3.org/2000/svg" xmlns:xlink="http://www.w3.org/1999/xlink" width="1080" zoomAndPan="magnify" viewBox="0 0 810 809.999993" height="1080" preserveAspectRatio="xMidYMid meet" version="1.0"><path fill="#ffffff" d="M 750.164062 316.710938 L 561.894531 152.117188 C 561.046875 151.375 560.15625 150.699219 559.210938 150.082031 C 558.269531 149.46875 557.289062 148.925781 556.269531 148.453125 C 555.246094 147.980469 554.199219 147.582031 553.121094 147.257812 C 552.042969 146.9375 550.949219 146.691406 549.835938 146.527344 C 548.722656 146.359375 547.605469 146.273438 546.480469 146.269531 C 545.355469 146.261719 544.234375 146.335938 543.121094 146.492188 C 542.007812 146.648438 540.910156 146.878906 539.828125 147.191406 C 538.75 147.503906 537.695312 147.890625 536.671875 148.355469 C 535.644531 148.816406 534.660156 149.351562 533.710938 149.953125 C 532.761719 150.558594 531.863281 151.226562 531.007812 151.960938 C 530.15625 152.691406 529.359375 153.484375 528.621094 154.332031 C 527.882812 155.175781 527.207031 156.074219 526.597656 157.015625 C 525.984375 157.960938 525.445312 158.941406 524.976562 159.964844 C 524.507812 160.984375 524.113281 162.035156 523.792969 163.113281 C 523.472656 164.191406 523.234375 165.285156 523.070312 166.398438 C 522.910156 167.511719 522.828125 168.628906 522.828125 169.75 L 522.828125 240.292969 L 263.953125 240.292969 C 263.183594 240.292969 262.414062 240.332031 261.644531 240.40625 C 260.878906 240.480469 260.117188 240.59375 259.363281 240.746094 C 258.605469 240.894531 257.859375 241.082031 257.121094 241.304688 C 256.382812 241.527344 255.660156 241.789062 254.945312 242.082031 C 254.234375 242.378906 253.539062 242.707031 252.859375 243.070312 C 252.179688 243.433594 251.519531 243.828125 250.878906 244.253906 C 250.238281 244.683594 249.617188 245.140625 249.023438 245.628906 C 248.425781 246.117188 247.855469 246.636719 247.3125 247.179688 C 246.765625 247.722656 246.25 248.292969 245.761719 248.890625 C 245.273438 249.484375 244.8125 250.101562 244.386719 250.742188 C 243.957031 251.382812 243.5625 252.042969 243.199219 252.722656 C 242.835938 253.402344 242.503906 254.097656 242.210938 254.808594 C 241.914062 255.519531 241.65625 256.242188 241.433594 256.980469 C 241.207031 257.71875 241.023438 258.464844 240.871094 259.21875 C 240.722656 259.972656 240.609375 260.734375 240.53125 261.5 C 240.457031 262.269531 240.417969 263.035156 240.417969 263.804688 L 240.417969 404.886719 C 240.417969 405.65625 240.457031 406.425781 240.53125 407.191406 C 240.609375 407.957031 240.722656 408.71875 240.871094 409.472656 C 241.023438 410.230469 241.207031 410.976562 241.433594 411.710938 C 241.65625 412.449219 241.914062 413.171875 242.210938 413.886719 C 242.503906 414.597656 242.835938 415.292969 243.199219 415.972656 C 243.5625 416.652344 243.957031 417.308594 244.386719 417.949219 C 244.8125 418.589844 245.273438 419.207031 245.761719 419.804688 C 246.25 420.398438 246.765625 420.96875 247.3125 421.511719 C 247.855469 422.058594 248.425781 422.574219 249.023438 423.0625 C 249.617188 423.550781 250.238281 424.011719 250.878906 424.4375 C 251.519531 424.867188 252.179688 425.261719 252.859375 425.625 C 253.539062 425.988281 254.234375 426.316406 254.945312 426.609375 C 255.660156 426.90625 256.382812 427.164062 257.121094 427.386719 C 257.859375 427.613281 258.605469 427.796875 259.363281 427.949219 C 260.117188 428.097656 260.878906 428.210938 261.644531 428.289062 C 262.414062 428.363281 263.183594 428.402344 263.953125 428.402344 L 522.828125 428.402344 L 522.828125 522.453125 L 263.953125 522.453125 C 263.183594 522.453125 262.414062 522.492188 261.644531 522.566406 C 260.878906 522.644531 260.117188 522.757812 259.363281 522.90625 C 258.605469 523.058594 257.859375 523.242188 257.121094 523.46875 C 256.382812 523.691406 255.660156 523.949219 254.945312 524.246094 C 254.234375 524.539062 253.539062 524.867188 252.859375 525.230469 C 252.179688 525.59375 251.519531 525.988281 250.878906 526.417969 C 250.238281 526.84375 249.617188 527.304688 249.023438 527.792969 C 248.425781 528.28125 247.855469 528.796875 247.3125 529.339844 C 246.765625 529.886719 246.25 530.457031 245.761719 531.050781 C 245.273438 531.648438 244.8125 532.265625 244.386719 532.90625 C 243.957031 533.546875 243.5625 534.203125 243.199219 534.882812 C 242.835938 535.5625 242.503906 536.257812 242.210938 536.96875 C 241.914062 537.679688 241.65625 538.40625 241.433594 539.140625 C 241.207031 539.878906 241.023438 540.625 240.871094 541.382812 C 240.722656 542.136719 240.609375 542.898438 240.53125 543.664062 C 240.457031 544.429688 240.417969 545.199219 240.417969 545.96875 L 240.417969 588.292969 L 112.394531 475.425781 L 226.535156 384.429688 L 197.117188 348.21875 L 61.089844 457.085938 C 59.703125 458.183594 58.457031 459.417969 57.347656 460.792969 C 56.238281 462.167969 55.296875 463.648438 54.523438 465.238281 C 53.75 466.824219 53.164062 468.480469 52.761719 470.199219 C 52.359375 471.917969 52.15625 473.660156 52.148438 475.425781 C 52.117188 477.136719 52.269531 478.828125 52.605469 480.503906 C 52.941406 482.179688 53.457031 483.800781 54.148438 485.363281 C 54.839844 486.925781 55.691406 488.398438 56.703125 489.773438 C 57.714844 491.152344 58.863281 492.40625 60.148438 493.53125 L 248.421875 658.128906 C 249.265625 658.867188 250.15625 659.542969 251.097656 660.15625 C 252.039062 660.765625 253.019531 661.308594 254.039062 661.78125 C 255.054688 662.253906 256.101562 662.652344 257.179688 662.972656 C 258.253906 663.292969 259.347656 663.539062 260.457031 663.703125 C 261.570312 663.871094 262.683594 663.957031 263.808594 663.964844 C 264.929688 663.96875 266.046875 663.894531 267.160156 663.742188 C 268.273438 663.589844 269.367188 663.355469 270.449219 663.046875 C 271.527344 662.734375 272.578125 662.351562 273.601562 661.890625 C 274.648438 661.421875 275.652344 660.878906 276.617188 660.261719 C 277.582031 659.644531 278.5 658.964844 279.367188 658.214844 C 280.230469 657.464844 281.039062 656.65625 281.785156 655.789062 C 282.535156 654.921875 283.214844 654.003906 283.828125 653.039062 C 284.441406 652.070312 284.984375 651.066406 285.449219 650.019531 C 285.917969 648.972656 286.304688 647.902344 286.613281 646.796875 C 286.925781 645.695312 287.152344 644.578125 287.296875 643.441406 C 287.445312 642.308594 287.507812 641.167969 287.488281 640.023438 L 287.488281 569.480469 L 546.359375 569.480469 C 547.132812 569.480469 547.898438 569.445312 548.667969 569.367188 C 549.433594 569.292969 550.195312 569.179688 550.953125 569.03125 C 551.707031 568.878906 552.453125 568.691406 553.191406 568.46875 C 553.929688 568.246094 554.65625 567.988281 555.367188 567.691406 C 556.078125 567.398438 556.773438 567.066406 557.453125 566.707031 C 558.132812 566.34375 558.792969 565.945312 559.433594 565.519531 C 560.078125 565.089844 560.695312 564.632812 561.289062 564.144531 C 561.886719 563.65625 562.457031 563.140625 563 562.59375 C 563.546875 562.050781 564.0625 561.480469 564.554688 560.886719 C 565.042969 560.289062 565.5 559.671875 565.929688 559.03125 C 566.355469 558.390625 566.753906 557.730469 567.117188 557.050781 C 567.480469 556.375 567.808594 555.679688 568.101562 554.964844 C 568.398438 554.253906 568.65625 553.53125 568.882812 552.792969 C 569.105469 552.058594 569.292969 551.3125 569.441406 550.554688 C 569.59375 549.800781 569.707031 549.039062 569.78125 548.273438 C 569.855469 547.507812 569.894531 546.738281 569.894531 545.96875 L 569.894531 404.886719 C 569.894531 404.117188 569.855469 403.347656 569.78125 402.582031 C 569.707031 401.816406 569.59375 401.054688 569.441406 400.300781 C 569.292969 399.542969 569.105469 398.796875 568.882812 398.0625 C 568.65625 397.324219 568.398438 396.601562 568.101562 395.890625 C 567.808594 395.175781 567.480469 394.480469 567.117188 393.804688 C 566.753906 393.125 566.355469 392.464844 565.929688 391.824219 C 565.5 391.183594 565.042969 390.566406 564.554688 389.96875 C 564.0625 389.375 563.546875 388.804688 563 388.261719 C 562.457031 387.714844 561.886719 387.199219 561.289062 386.710938 C 560.695312 386.222656 560.078125 385.765625 559.433594 385.335938 C 558.792969 384.910156 558.132812 384.511719 557.453125 384.148438 C 556.773438 383.785156 556.078125 383.457031 555.367188 383.164062 C 554.65625 382.867188 553.929688 382.609375 553.191406 382.386719 C 552.453125 382.164062 551.707031 381.976562 550.953125 381.824219 C 550.195312 381.675781 549.433594 381.5625 548.667969 381.488281 C 547.898438 381.410156 547.132812 381.375 546.359375 381.375 L 287.488281 381.375 L 287.488281 287.320312 L 546.359375 287.320312 C 547.132812 287.320312 547.898438 287.28125 548.667969 287.207031 C 549.433594 287.128906 550.195312 287.019531 550.953125 286.867188 C 551.707031 286.71875 552.453125 286.53125 553.191406 286.308594 C 553.929688 286.082031 554.65625 285.824219 555.367188 285.53125 C 556.078125 285.234375 556.773438 284.90625 557.453125 284.542969 C 558.132812 284.179688 558.792969 283.785156 559.433594 283.355469 C 560.078125 282.929688 560.695312 282.472656 561.289062 281.980469 C 561.886719 281.492188 562.457031 280.976562 563 280.433594 C 563.546875 279.886719 564.0625 279.316406 564.554688 278.722656 C 565.042969 278.128906 565.5 277.507812 565.929688 276.871094 C 566.355469 276.230469 566.753906 275.570312 567.117188 274.890625 C 567.480469 274.210938 567.808594 273.515625 568.101562 272.804688 C 568.398438 272.09375 568.65625 271.367188 568.882812 270.632812 C 569.105469 269.894531 569.292969 269.148438 569.441406 268.394531 C 569.59375 267.636719 569.707031 266.878906 569.78125 266.109375 C 569.855469 265.34375 569.894531 264.574219 569.894531 263.804688 L 569.894531 221.480469 L 697.917969 334.347656 L 583.78125 425.34375 L 613.195312 462.261719 L 749.460938 353.390625 C 750.113281 352.84375 750.734375 352.257812 751.324219 351.640625 C 751.914062 351.023438 752.472656 350.375 752.992188 349.695312 C 753.511719 349.019531 753.992188 348.3125 754.433594 347.582031 C 754.878906 346.851562 755.277344 346.097656 755.640625 345.324219 C 756 344.550781 756.316406 343.757812 756.59375 342.949219 C 756.867188 342.140625 757.097656 341.320312 757.28125 340.484375 C 757.464844 339.652344 757.605469 338.808594 757.695312 337.960938 C 757.789062 337.109375 757.835938 336.257812 757.835938 335.40625 C 757.835938 334.550781 757.789062 333.699219 757.695312 332.847656 C 757.605469 332 757.464844 331.160156 757.28125 330.324219 C 757.097656 329.492188 756.867188 328.667969 756.59375 327.859375 C 756.316406 327.050781 756 326.257812 755.640625 325.484375 C 755.277344 324.710938 754.878906 323.957031 754.433594 323.226562 C 753.992188 322.496094 753.511719 321.792969 752.992188 321.113281 C 752.472656 320.433594 751.917969 319.785156 751.324219 319.167969 C 750.734375 318.550781 750.113281 317.96875 749.460938 317.417969 Z M 750.164062 316.710938 " fill-opacity="1" fill-rule="nonzero"/></svg>