<svg xmlns="http://www.w3.org/2000/svg" xmlns:xlink="http://www.w3.org/1999/xlink" width="1080" zoomAndPan="magnify" viewBox="0 0 810 809.999993" height="1080" preserveAspectRatio="xMidYMid meet" version="1.0"><path fill="#ffffff" d="M 522.527344 133.527344 C 539.707031 125.933594 561.71875 135.84375 567.808594 153.554688 C 583.769531 193.117188 599.363281 232.835938 615.496094 272.359375 C 628.128906 272.359375 642.746094 271.058594 652.457031 280.972656 C 671.789062 297.828125 660.941406 325.773438 665.207031 347.824219 L 665.207031 549.890625 C 660.816406 571.746094 672.109375 600.660156 652.457031 617.070312 C 641.855469 627.707031 625.976562 625.515625 612.367188 625.683594 C 468.707031 625.476562 325.011719 625.683594 181.351562 625.601562 C 165.550781 626.453125 151.214844 614.554688 146.867188 599.691406 C 146.503906 583.355469 145.738281 550.695312 145.328125 534.375 L 145.328125 349.160156 C 149.105469 324.46875 137.773438 290.34375 164.984375 275.722656 C 284.03125 228.042969 403.359375 180.925781 522.527344 133.527344 Z M 169.253906 296.480469 C 167.464844 309.925781 168.035156 323.492188 168.078125 337.015625 C 326.238281 337.132812 484.398438 337.09375 642.546875 337.054688 C 642.429688 326.128906 642.832031 315.238281 642.304688 304.355469 C 643.195312 298.628906 638.6875 293.835938 633.003906 294.246094 C 490.6875 293.960938 348.367188 294.203125 206.058594 294.125 C 193.742188 293.882812 181.3125 293.636719 169.253906 296.480469 Z M 168.074219 424.789062 C 168.152344 481.085938 167.828125 537.378906 168.191406 593.671875 C 166.972656 601.835938 175.417969 604.878906 182 603.949219 C 330.9375 603.90625 479.875 603.949219 628.8125 603.949219 C 635.230469 604.800781 643.558594 601.757812 642.296875 593.75 C 642.746094 537.417969 642.378906 481.078125 642.460938 424.785156 C 484.34375 424.789062 326.191406 424.789062 168.074219 424.789062 Z M 168.074219 424.789062 " fill-opacity="1" fill-rule="nonzero"/><path fill="#ffffff" d="M 484 539.609375 C 472.382812 515.730469 490.746094 486.359375 515.4375 481.039062 C 527.621094 477.789062 540.128906 482.296875 550.246094 488.996094 C 558.773438 485.058594 567.222656 479.902344 576.929688 479.941406 C 600.242188 479.699219 621.566406 500.9375 621.203125 524.296875 C 620.433594 547.039062 599.636719 567.308594 576.8125 566.984375 C 567.226562 566.945312 558.78125 561.910156 550.492188 557.726562 C 528.921875 575.960938 494.199219 564.953125 484 539.609375 Z M 502.117188 524.460938 C 500.859375 542.53125 524.863281 551.839844 537.699219 540.664062 C 533.113281 529.128906 533.796875 516.785156 537.582031 505.167969 C 522.867188 495.867188 499.597656 505.332031 502.117188 524.460938 Z M 565.675781 504.316406 C 550.363281 514.230469 553.855469 541.679688 572.5 544.808594 C 587.449219 549.074219 602.761719 535.589844 599.351562 520.117188 C 598.785156 503.75 578.515625 497.25 565.675781 504.316406 Z M 565.675781 504.316406 " fill-opacity="1" fill-rule="nonzero"/><path fill="#ffffff" d="M 213.390625 513.332031 C 268.625 511.867188 323.988281 512.882812 379.304688 512.84375 C 393.148438 511.789062 393.316406 535.589844 379.136719 534.167969 C 324.996094 534.375 270.816406 534.617188 216.675781 534.089844 C 205.34375 534.65625 202.910156 516.785156 213.390625 513.332031 Z M 213.390625 513.332031 " fill-opacity="1" fill-rule="nonzero"/><path fill="#ffffff" d="M 213.390625 546.300781 C 268.625 544.835938 323.988281 545.851562 379.304688 545.8125 C 393.148438 544.757812 393.316406 568.558594 379.136719 567.136719 C 324.996094 567.34375 270.816406 567.585938 216.675781 567.058594 C 205.34375 567.625 202.910156 549.753906 213.390625 546.300781 Z M 213.390625 546.300781 " fill-opacity="1" fill-rule="nonzero"/><path fill="#ffffff" d="M 213.390625 474.226562 C 268.625 472.761719 323.988281 473.777344 379.304688 473.738281 C 393.148438 472.683594 393.316406 496.484375 379.136719 495.0625 C 324.996094 495.269531 270.816406 495.511719 216.675781 494.984375 C 205.34375 495.550781 202.910156 477.679688 213.390625 474.226562 Z M 213.390625 474.226562 " fill-opacity="1" fill-rule="nonzero"/></svg>