<svg xmlns="http://www.w3.org/2000/svg" xmlns:xlink="http://www.w3.org/1999/xlink" width="1080" zoomAndPan="magnify" viewBox="0 0 810 809.999993" height="1080" preserveAspectRatio="xMidYMid meet" version="1.0"><defs><clipPath id="8d4f591cc5"><path d="M 137.605469 152 L 671 152 L 671 499 L 137.605469 499 Z M 137.605469 152 " clip-rule="nonzero"/></clipPath></defs><g clip-path="url(#8d4f591cc5)"><path fill="#ffffff" d="M 619.070312 244.917969 L 304.765625 244.917969 C 304.222656 244.917969 303.679688 244.941406 303.136719 244.996094 C 302.59375 245.050781 302.054688 245.128906 301.519531 245.234375 C 300.984375 245.34375 300.457031 245.476562 299.933594 245.632812 C 299.410156 245.792969 298.898438 245.976562 298.394531 246.183594 C 297.890625 246.390625 297.398438 246.625 296.917969 246.882812 C 296.4375 247.140625 295.96875 247.417969 295.515625 247.722656 C 295.0625 248.023438 294.625 248.347656 294.203125 248.695312 C 293.78125 249.039062 293.378906 249.40625 292.992188 249.792969 C 292.605469 250.175781 292.242188 250.582031 291.894531 251.003906 C 291.550781 251.425781 291.226562 251.863281 290.921875 252.316406 C 290.621094 252.769531 290.339844 253.234375 290.082031 253.714844 C 289.824219 254.195312 289.59375 254.6875 289.382812 255.191406 C 289.175781 255.695312 288.992188 256.210938 288.832031 256.730469 C 288.675781 257.253906 288.542969 257.78125 288.4375 258.316406 C 288.328125 258.851562 288.25 259.390625 288.195312 259.933594 C 288.144531 260.476562 288.117188 261.019531 288.117188 261.5625 C 288.117188 262.109375 288.144531 262.652344 288.195312 263.195312 C 288.25 263.738281 288.328125 264.277344 288.4375 264.8125 C 288.542969 265.347656 288.675781 265.875 288.832031 266.394531 C 288.992188 266.917969 289.175781 267.429688 289.382812 267.933594 C 289.59375 268.4375 289.824219 268.929688 290.082031 269.410156 C 290.339844 269.890625 290.621094 270.359375 290.921875 270.8125 C 291.226562 271.265625 291.550781 271.703125 291.894531 272.125 C 292.242188 272.546875 292.605469 272.949219 292.992188 273.335938 C 293.378906 273.722656 293.78125 274.085938 294.203125 274.433594 C 294.625 274.777344 295.0625 275.101562 295.515625 275.40625 C 295.96875 275.707031 296.4375 275.988281 296.917969 276.246094 C 297.398438 276.503906 297.890625 276.734375 298.394531 276.945312 C 298.898438 277.152344 299.410156 277.335938 299.933594 277.496094 C 300.457031 277.652344 300.984375 277.785156 301.519531 277.890625 C 302.054688 277.996094 302.59375 278.078125 303.136719 278.132812 C 303.679688 278.183594 304.222656 278.210938 304.765625 278.210938 L 619.070312 278.210938 C 619.453125 278.210938 619.839844 278.222656 620.222656 278.246094 C 620.605469 278.269531 620.984375 278.308594 621.367188 278.355469 C 621.746094 278.402344 622.125 278.464844 622.503906 278.535156 C 622.878906 278.609375 623.253906 278.695312 623.625 278.789062 C 623.996094 278.886719 624.363281 278.992188 624.726562 279.113281 C 625.09375 279.234375 625.453125 279.363281 625.808594 279.507812 C 626.164062 279.648438 626.515625 279.804688 626.863281 279.96875 C 627.210938 280.132812 627.550781 280.308594 627.886719 280.496094 C 628.222656 280.683594 628.550781 280.878906 628.871094 281.085938 C 629.195312 281.296875 629.511719 281.511719 629.820312 281.742188 C 630.128906 281.96875 630.429688 282.207031 630.722656 282.453125 C 631.015625 282.699219 631.300781 282.957031 631.578125 283.21875 C 631.855469 283.484375 632.125 283.757812 632.386719 284.042969 C 632.644531 284.324219 632.894531 284.613281 633.136719 284.910156 C 633.378906 285.210938 633.609375 285.515625 633.832031 285.828125 C 634.054688 286.140625 634.265625 286.460938 634.46875 286.785156 C 634.671875 287.113281 634.859375 287.445312 635.042969 287.785156 C 635.222656 288.121094 635.390625 288.464844 635.550781 288.816406 C 635.707031 289.164062 635.855469 289.519531 635.992188 289.878906 C 636.128906 290.238281 636.253906 290.597656 636.367188 290.964844 C 636.476562 291.332031 636.578125 291.703125 636.667969 292.074219 C 636.757812 292.449219 636.835938 292.824219 636.902344 293.203125 C 636.964844 293.578125 637.019531 293.960938 637.0625 294.339844 C 637.101562 294.722656 637.132812 295.105469 637.148438 295.488281 C 637.164062 295.871094 637.171875 296.253906 637.164062 296.636719 C 637.15625 297.019531 637.136719 297.402344 637.105469 297.785156 C 637.070312 298.167969 637.027344 298.550781 636.972656 298.929688 C 636.914062 299.308594 636.847656 299.6875 636.765625 300.0625 C 636.6875 300.4375 636.59375 300.808594 636.492188 301.175781 C 636.386719 301.546875 636.273438 301.914062 636.144531 302.273438 C 636.019531 302.636719 635.878906 302.992188 635.730469 303.347656 C 635.578125 303.699219 635.417969 304.046875 635.246094 304.390625 C 616.214844 342.574219 589.042969 427.753906 575.472656 454.867188 C 574.722656 456.367188 573.78125 457.738281 572.644531 458.976562 C 571.511719 460.214844 570.234375 461.277344 568.804688 462.160156 C 567.375 463.039062 565.855469 463.710938 564.238281 464.167969 C 562.625 464.628906 560.976562 464.855469 559.296875 464.855469 L 327.90625 464.855469 C 327.007812 464.855469 326.109375 464.789062 325.21875 464.65625 C 324.324219 464.523438 323.449219 464.324219 322.585938 464.0625 C 321.722656 463.796875 320.882812 463.46875 320.070312 463.082031 C 319.257812 462.691406 318.476562 462.242188 317.730469 461.738281 C 316.984375 461.230469 316.277344 460.671875 315.617188 460.0625 C 314.953125 459.449219 314.339844 458.792969 313.773438 458.089844 C 313.210938 457.386719 312.699219 456.644531 312.246094 455.867188 C 311.792969 455.085938 311.398438 454.277344 311.066406 453.441406 C 311.066406 453.25 259.019531 219.800781 259.019531 219.800781 C 258.492188 217.429688 257.867188 215.085938 257.144531 212.769531 C 256.421875 210.449219 255.601562 208.167969 254.683594 205.917969 C 253.765625 203.671875 252.757812 201.464844 251.652344 199.300781 C 250.550781 197.136719 249.355469 195.023438 248.074219 192.964844 C 246.792969 190.902344 245.425781 188.894531 243.976562 186.949219 C 242.523438 185.003906 240.992188 183.121094 239.382812 181.304688 C 237.769531 179.488281 236.085938 177.742188 234.328125 176.066406 C 232.570312 174.390625 230.746094 172.796875 228.851562 171.273438 C 226.957031 169.753906 225.003906 168.316406 222.988281 166.964844 C 220.972656 165.609375 218.90625 164.339844 216.785156 163.160156 C 214.660156 161.980469 212.492188 160.894531 210.28125 159.898438 C 208.066406 158.902344 205.8125 158 203.523438 157.195312 C 201.234375 156.390625 198.914062 155.683594 196.5625 155.074219 C 194.214844 154.464844 191.84375 153.953125 189.449219 153.546875 C 187.054688 153.136719 184.652344 152.828125 182.230469 152.625 C 179.8125 152.417969 177.390625 152.316406 174.960938 152.316406 L 154.277344 152.316406 C 153.722656 152.292969 153.171875 152.292969 152.617188 152.328125 C 152.066406 152.359375 151.515625 152.417969 150.96875 152.507812 C 150.421875 152.597656 149.882812 152.714844 149.347656 152.859375 C 148.8125 153.003906 148.289062 153.175781 147.773438 153.378906 C 147.253906 153.578125 146.75 153.804688 146.257812 154.054688 C 145.765625 154.308594 145.289062 154.585938 144.824219 154.886719 C 144.359375 155.191406 143.914062 155.515625 143.484375 155.867188 C 143.054688 156.214844 142.644531 156.585938 142.253906 156.976562 C 141.859375 157.367188 141.492188 157.777344 141.140625 158.207031 C 140.792969 158.640625 140.46875 159.085938 140.167969 159.550781 C 139.863281 160.015625 139.589844 160.492188 139.335938 160.984375 C 139.082031 161.476562 138.859375 161.984375 138.660156 162.5 C 138.460938 163.015625 138.289062 163.539062 138.140625 164.074219 C 137.996094 164.609375 137.882812 165.148438 137.792969 165.695312 C 137.703125 166.242188 137.644531 166.792969 137.613281 167.34375 C 137.582031 167.898438 137.578125 168.449219 137.605469 169.003906 C 137.605469 169.546875 137.636719 170.089844 137.6875 170.632812 C 137.742188 171.175781 137.824219 171.714844 137.933594 172.25 C 138.039062 172.78125 138.171875 173.308594 138.332031 173.832031 C 138.488281 174.351562 138.675781 174.863281 138.882812 175.367188 C 139.09375 175.871094 139.324219 176.363281 139.582031 176.84375 C 139.839844 177.324219 140.121094 177.789062 140.421875 178.242188 C 140.726562 178.695312 141.050781 179.132812 141.398438 179.554688 C 141.742188 179.976562 142.109375 180.378906 142.492188 180.761719 C 142.878906 181.148438 143.28125 181.515625 143.703125 181.859375 C 144.125 182.207031 144.5625 182.53125 145.015625 182.832031 C 145.46875 183.136719 145.933594 183.417969 146.414062 183.671875 C 146.894531 183.929688 147.386719 184.164062 147.890625 184.375 C 148.394531 184.582031 148.90625 184.765625 149.429688 184.925781 C 149.949219 185.085938 150.476562 185.21875 151.011719 185.324219 C 151.546875 185.429688 152.082031 185.511719 152.625 185.566406 C 153.167969 185.621094 153.710938 185.648438 154.257812 185.652344 L 174.960938 185.652344 C 176.449219 185.648438 177.933594 185.710938 179.417969 185.835938 C 180.898438 185.960938 182.375 186.148438 183.839844 186.398438 C 185.304688 186.648438 186.757812 186.960938 188.199219 187.332031 C 189.640625 187.703125 191.0625 188.136719 192.464844 188.628906 C 193.867188 189.121094 195.25 189.671875 196.605469 190.28125 C 197.964844 190.890625 199.292969 191.558594 200.59375 192.277344 C 201.894531 193 203.160156 193.773438 204.398438 194.601562 C 205.632812 195.433594 206.832031 196.3125 207.992188 197.242188 C 209.152344 198.171875 210.273438 199.148438 211.351562 200.171875 C 212.429688 201.195312 213.460938 202.265625 214.449219 203.375 C 215.4375 204.488281 216.378906 205.640625 217.269531 206.832031 C 218.160156 208.019531 219 209.246094 219.785156 210.507812 C 220.574219 211.773438 221.304688 213.066406 221.984375 214.386719 C 222.660156 215.710938 223.28125 217.0625 223.847656 218.4375 C 224.410156 219.816406 224.914062 221.210938 225.359375 222.632812 C 225.804688 224.050781 226.191406 225.484375 226.515625 226.9375 L 278.714844 461.390625 C 278.847656 461.925781 279 462.496094 279.171875 463.027344 C 279.59375 464.296875 280.066406 465.546875 280.589844 466.78125 C 281.109375 468.011719 281.675781 469.222656 282.292969 470.410156 C 282.90625 471.597656 283.570312 472.757812 284.273438 473.894531 C 284.980469 475.03125 285.730469 476.136719 286.523438 477.214844 C 287.316406 478.292969 288.148438 479.335938 289.023438 480.347656 C 289.894531 481.359375 290.808594 482.335938 291.757812 483.277344 C 292.707031 484.21875 293.695312 485.121094 294.714844 485.984375 C 295.734375 486.851562 296.789062 487.671875 297.875 488.457031 C 298.957031 489.238281 300.074219 489.976562 301.214844 490.671875 C 302.359375 491.367188 303.527344 492.015625 304.71875 492.617188 C 305.914062 493.222656 307.128906 493.777344 308.363281 494.289062 C 309.601562 494.796875 310.855469 495.253906 312.128906 495.667969 C 313.402344 496.078125 314.6875 496.4375 315.988281 496.75 C 317.289062 497.058594 318.601562 497.316406 319.921875 497.527344 C 321.242188 497.734375 322.570312 497.890625 323.902344 497.992188 C 325.234375 498.097656 326.570312 498.152344 327.90625 498.152344 L 559.296875 498.152344 C 561.671875 498.148438 564.035156 497.988281 566.386719 497.660156 C 568.738281 497.332031 571.054688 496.84375 573.339844 496.195312 C 575.625 495.542969 577.851562 494.742188 580.023438 493.785156 C 582.195312 492.824219 584.292969 491.722656 586.3125 490.476562 C 588.332031 489.226562 590.253906 487.84375 592.082031 486.332031 C 593.910156 484.816406 595.625 483.179688 597.226562 481.429688 C 598.828125 479.675781 600.300781 477.820312 601.644531 475.863281 C 602.992188 473.910156 604.195312 471.867188 605.253906 469.746094 C 618.804688 442.632812 645.921875 357.492188 665.027344 319.269531 C 665.515625 318.296875 665.972656 317.308594 666.398438 316.304688 C 666.820312 315.300781 667.214844 314.285156 667.574219 313.257812 C 667.933594 312.230469 668.261719 311.191406 668.554688 310.144531 C 668.847656 309.09375 669.109375 308.035156 669.335938 306.972656 C 669.5625 305.90625 669.753906 304.835938 669.914062 303.757812 C 670.070312 302.679688 670.195312 301.597656 670.285156 300.511719 C 670.375 299.425781 670.429688 298.339844 670.449219 297.25 C 670.472656 296.164062 670.457031 295.074219 670.410156 293.984375 C 670.359375 292.898438 670.277344 291.8125 670.160156 290.730469 C 670.039062 289.648438 669.886719 288.570312 669.703125 287.496094 C 669.515625 286.421875 669.296875 285.359375 669.042969 284.296875 C 668.785156 283.238281 668.5 282.1875 668.179688 281.148438 C 667.855469 280.109375 667.503906 279.078125 667.117188 278.058594 C 666.730469 277.042969 666.3125 276.035156 665.859375 275.046875 C 665.410156 274.054688 664.929688 273.078125 664.417969 272.117188 C 663.902344 271.15625 663.359375 270.210938 662.789062 269.285156 C 662.214844 268.359375 661.613281 267.449219 660.984375 266.5625 C 660.351562 265.675781 659.695312 264.808594 659.007812 263.960938 C 658.324219 263.113281 657.613281 262.289062 656.875 261.488281 C 656.136719 260.6875 655.371094 259.910156 654.585938 259.15625 C 653.796875 258.40625 652.988281 257.679688 652.152344 256.976562 C 651.320312 256.277344 650.464844 255.601562 649.589844 254.957031 C 648.710938 254.308594 647.816406 253.691406 646.898438 253.101562 C 645.984375 252.511719 645.050781 251.949219 644.097656 251.421875 C 643.144531 250.890625 642.179688 250.390625 641.195312 249.921875 C 640.210938 249.453125 639.214844 249.015625 638.203125 248.609375 C 637.191406 248.203125 636.167969 247.832031 635.132812 247.492188 C 634.097656 247.148438 633.054688 246.84375 632 246.570312 C 630.945312 246.292969 629.882812 246.054688 628.8125 245.847656 C 627.746094 245.640625 626.667969 245.46875 625.589844 245.332031 C 624.507812 245.191406 623.421875 245.089844 622.335938 245.019531 C 621.25 244.949219 620.160156 244.917969 619.070312 244.917969 Z M 619.070312 244.917969 " fill-opacity="1" fill-rule="evenodd"/></g><path fill="#ffffff" d="M 346.007812 517.671875 C 344.890625 517.671875 343.78125 517.699219 342.667969 517.753906 C 341.554688 517.808594 340.445312 517.890625 339.335938 517.996094 C 338.230469 518.105469 337.125 518.242188 336.023438 518.40625 C 334.921875 518.570312 333.824219 518.761719 332.734375 518.976562 C 331.640625 519.195312 330.554688 519.4375 329.476562 519.707031 C 328.394531 519.980469 327.324219 520.273438 326.257812 520.597656 C 325.191406 520.921875 324.136719 521.269531 323.085938 521.644531 C 322.039062 522.019531 321 522.421875 319.972656 522.847656 C 318.941406 523.273438 317.925781 523.722656 316.917969 524.199219 C 315.910156 524.675781 314.917969 525.175781 313.9375 525.699219 C 312.953125 526.226562 311.984375 526.773438 311.03125 527.347656 C 310.074219 527.917969 309.136719 528.511719 308.210938 529.132812 C 307.285156 529.75 306.375 530.390625 305.480469 531.054688 C 304.585938 531.71875 303.707031 532.402344 302.847656 533.109375 C 301.984375 533.8125 301.144531 534.542969 300.316406 535.289062 C 299.492188 536.035156 298.6875 536.804688 297.898438 537.589844 C 297.113281 538.378906 296.34375 539.183594 295.597656 540.007812 C 294.847656 540.832031 294.121094 541.675781 293.414062 542.535156 C 292.710938 543.398438 292.023438 544.273438 291.363281 545.167969 C 290.699219 546.0625 290.058594 546.972656 289.4375 547.898438 C 288.820312 548.824219 288.222656 549.765625 287.652344 550.71875 C 287.078125 551.671875 286.53125 552.640625 286.007812 553.625 C 285.480469 554.605469 284.980469 555.597656 284.503906 556.605469 C 284.027344 557.613281 283.578125 558.628906 283.152344 559.65625 C 282.726562 560.6875 282.324219 561.726562 281.949219 562.773438 C 281.574219 563.820312 281.226562 564.878906 280.902344 565.941406 C 280.578125 567.007812 280.28125 568.082031 280.011719 569.160156 C 279.742188 570.242188 279.496094 571.328125 279.28125 572.417969 C 279.0625 573.511719 278.871094 574.605469 278.710938 575.707031 C 278.546875 576.808594 278.410156 577.914062 278.300781 579.019531 C 278.191406 580.128906 278.109375 581.238281 278.054688 582.351562 C 278 583.460938 277.972656 584.574219 277.972656 585.6875 C 277.972656 586.800781 278 587.914062 278.054688 589.027344 C 278.109375 590.136719 278.191406 591.246094 278.300781 592.355469 C 278.410156 593.464844 278.546875 594.566406 278.707031 595.667969 C 278.871094 596.769531 279.0625 597.867188 279.277344 598.957031 C 279.496094 600.050781 279.738281 601.136719 280.011719 602.214844 C 280.28125 603.292969 280.578125 604.367188 280.902344 605.433594 C 281.222656 606.496094 281.574219 607.554688 281.949219 608.601562 C 282.324219 609.652344 282.722656 610.6875 283.148438 611.71875 C 283.574219 612.746094 284.027344 613.761719 284.503906 614.769531 C 284.980469 615.777344 285.480469 616.769531 286.003906 617.75 C 286.527344 618.734375 287.078125 619.703125 287.648438 620.65625 C 288.222656 621.609375 288.816406 622.550781 289.4375 623.476562 C 290.054688 624.402344 290.695312 625.3125 291.359375 626.207031 C 292.023438 627.101562 292.707031 627.976562 293.414062 628.839844 C 294.121094 629.699219 294.847656 630.542969 295.59375 631.367188 C 296.34375 632.191406 297.109375 632.996094 297.898438 633.785156 C 298.683594 634.570312 299.492188 635.339844 300.316406 636.085938 C 301.140625 636.832031 301.984375 637.558594 302.84375 638.265625 C 303.703125 638.972656 304.582031 639.65625 305.476562 640.320312 C 306.371094 640.984375 307.28125 641.625 308.207031 642.242188 C 309.132812 642.859375 310.074219 643.457031 311.027344 644.027344 C 311.984375 644.601562 312.953125 645.148438 313.933594 645.675781 C 314.914062 646.199219 315.910156 646.699219 316.917969 647.175781 C 317.921875 647.652344 318.941406 648.101562 319.96875 648.527344 C 320.996094 648.953125 322.035156 649.355469 323.085938 649.730469 C 324.132812 650.105469 325.191406 650.453125 326.253906 650.777344 C 327.320312 651.101562 328.394531 651.398438 329.472656 651.667969 C 330.554688 651.9375 331.640625 652.183594 332.734375 652.398438 C 333.824219 652.617188 334.921875 652.804688 336.023438 652.96875 C 337.125 653.132812 338.230469 653.269531 339.335938 653.378906 C 340.445312 653.488281 341.554688 653.570312 342.667969 653.625 C 343.78125 653.679688 344.890625 653.707031 346.007812 653.707031 C 347.121094 653.707031 348.234375 653.679688 349.34375 653.625 C 350.457031 653.570312 351.566406 653.488281 352.675781 653.378906 C 353.785156 653.269531 354.890625 653.132812 355.992188 652.96875 C 357.09375 652.804688 358.1875 652.613281 359.28125 652.394531 C 360.375 652.179688 361.460938 651.933594 362.539062 651.664062 C 363.621094 651.394531 364.695312 651.097656 365.757812 650.773438 C 366.824219 650.449219 367.882812 650.101562 368.929688 649.726562 C 369.980469 649.351562 371.015625 648.949219 372.046875 648.523438 C 373.074219 648.097656 374.09375 647.644531 375.097656 647.167969 C 376.105469 646.691406 377.101562 646.191406 378.082031 645.667969 C 379.066406 645.144531 380.035156 644.59375 380.988281 644.019531 C 381.945312 643.449219 382.882812 642.851562 383.808594 642.234375 C 384.734375 641.617188 385.644531 640.976562 386.539062 640.3125 C 387.433594 639.648438 388.3125 638.964844 389.171875 638.257812 C 390.035156 637.550781 390.875 636.824219 391.703125 636.074219 C 392.527344 635.328125 393.332031 634.558594 394.121094 633.773438 C 394.90625 632.984375 395.675781 632.179688 396.421875 631.355469 C 397.171875 630.53125 397.898438 629.6875 398.605469 628.824219 C 399.308594 627.964844 399.996094 627.085938 400.65625 626.191406 C 401.320312 625.300781 401.960938 624.390625 402.582031 623.464844 C 403.199219 622.539062 403.792969 621.597656 404.367188 620.640625 C 404.9375 619.6875 405.488281 618.71875 406.011719 617.738281 C 406.535156 616.753906 407.039062 615.761719 407.511719 614.753906 C 407.988281 613.746094 408.441406 612.730469 408.867188 611.703125 C 409.292969 610.671875 409.691406 609.632812 410.066406 608.585938 C 410.441406 607.539062 410.792969 606.480469 411.113281 605.414062 C 411.4375 604.351562 411.734375 603.277344 412.003906 602.199219 C 412.273438 601.117188 412.519531 600.03125 412.734375 598.941406 C 412.953125 597.847656 413.140625 596.75 413.304688 595.652344 C 413.46875 594.550781 413.605469 593.445312 413.714844 592.335938 C 413.820312 591.230469 413.902344 590.117188 413.957031 589.007812 C 414.011719 587.894531 414.039062 586.78125 414.039062 585.667969 C 414.039062 584.558594 414.011719 583.445312 413.953125 582.332031 C 413.898438 581.222656 413.816406 580.113281 413.707031 579.003906 C 413.597656 577.898438 413.460938 576.792969 413.296875 575.691406 C 413.132812 574.59375 412.941406 573.496094 412.722656 572.40625 C 412.503906 571.3125 412.261719 570.230469 411.988281 569.148438 C 411.71875 568.070312 411.421875 567 411.097656 565.933594 C 410.773438 564.867188 410.421875 563.8125 410.046875 562.765625 C 409.671875 561.71875 409.269531 560.679688 408.84375 559.652344 C 408.417969 558.625 407.96875 557.609375 407.492188 556.601562 C 407.015625 555.597656 406.511719 554.601562 405.988281 553.621094 C 405.464844 552.640625 404.914062 551.671875 404.34375 550.71875 C 403.769531 549.765625 403.171875 548.824219 402.554688 547.898438 C 401.9375 546.972656 401.296875 546.066406 400.632812 545.171875 C 399.96875 544.277344 399.285156 543.402344 398.578125 542.539062 C 397.871094 541.679688 397.144531 540.839844 396.398438 540.015625 C 395.648438 539.191406 394.882812 538.382812 394.09375 537.597656 C 393.308594 536.8125 392.5 536.042969 391.675781 535.296875 C 390.851562 534.550781 390.007812 533.824219 389.148438 533.117188 C 388.289062 532.410156 387.410156 531.726562 386.515625 531.0625 C 385.625 530.402344 384.714844 529.761719 383.789062 529.140625 C 382.863281 528.523438 381.921875 527.929688 380.96875 527.355469 C 380.011719 526.785156 379.046875 526.234375 378.0625 525.710938 C 377.082031 525.1875 376.089844 524.6875 375.082031 524.210938 C 374.074219 523.734375 373.058594 523.28125 372.03125 522.855469 C 371.003906 522.429688 369.964844 522.03125 368.917969 521.65625 C 367.867188 521.28125 366.8125 520.929688 365.746094 520.605469 C 364.683594 520.285156 363.609375 519.988281 362.53125 519.714844 C 361.449219 519.445312 360.363281 519.203125 359.273438 518.984375 C 358.183594 518.765625 357.085938 518.574219 355.984375 518.410156 C 354.882812 518.25 353.78125 518.113281 352.671875 518 C 351.5625 517.890625 350.453125 517.808594 349.34375 517.753906 C 348.230469 517.699219 347.117188 517.671875 346.007812 517.671875 Z M 346.007812 620.410156 C 344.867188 620.410156 343.734375 620.355469 342.601562 620.242188 C 341.46875 620.132812 340.34375 619.964844 339.230469 619.742188 C 338.113281 619.519531 337.011719 619.246094 335.925781 618.914062 C 334.835938 618.582031 333.765625 618.199219 332.714844 617.765625 C 331.664062 617.332031 330.636719 616.84375 329.632812 616.308594 C 328.628906 615.773438 327.65625 615.1875 326.710938 614.558594 C 325.765625 613.925781 324.851562 613.25 323.972656 612.527344 C 323.09375 611.804688 322.25 611.042969 321.449219 610.238281 C 320.644531 609.433594 319.878906 608.59375 319.160156 607.714844 C 318.4375 606.835938 317.761719 605.921875 317.128906 604.976562 C 316.496094 604.03125 315.914062 603.058594 315.375 602.054688 C 314.839844 601.050781 314.355469 600.023438 313.917969 598.976562 C 313.484375 597.925781 313.101562 596.855469 312.769531 595.765625 C 312.441406 594.679688 312.164062 593.578125 311.941406 592.460938 C 311.722656 591.347656 311.554688 590.222656 311.441406 589.089844 C 311.332031 587.960938 311.277344 586.824219 311.277344 585.6875 C 311.277344 584.550781 311.332031 583.417969 311.441406 582.285156 C 311.554688 581.15625 311.71875 580.03125 311.941406 578.917969 C 312.164062 577.800781 312.4375 576.699219 312.769531 575.613281 C 313.097656 574.523438 313.480469 573.453125 313.917969 572.402344 C 314.351562 571.355469 314.835938 570.328125 315.371094 569.324219 C 315.910156 568.320312 316.492188 567.347656 317.125 566.402344 C 317.753906 565.457031 318.433594 564.542969 319.152344 563.664062 C 319.875 562.785156 320.636719 561.945312 321.441406 561.140625 C 322.246094 560.335938 323.085938 559.574219 323.964844 558.851562 C 324.84375 558.132812 325.757812 557.453125 326.703125 556.824219 C 327.648438 556.191406 328.621094 555.605469 329.625 555.070312 C 330.628906 554.535156 331.65625 554.046875 332.703125 553.613281 C 333.753906 553.175781 334.824219 552.792969 335.914062 552.464844 C 337 552.132812 338.101562 551.859375 339.21875 551.636719 C 340.335938 551.414062 341.457031 551.246094 342.589844 551.132812 C 343.722656 551.023438 344.855469 550.964844 345.992188 550.964844 C 347.128906 550.964844 348.265625 551.019531 349.398438 551.132812 C 350.527344 551.242188 351.652344 551.410156 352.769531 551.628906 C 353.882812 551.851562 354.984375 552.128906 356.074219 552.457031 C 357.164062 552.785156 358.234375 553.167969 359.285156 553.605469 C 360.335938 554.039062 361.363281 554.523438 362.363281 555.058594 C 363.367188 555.59375 364.34375 556.179688 365.289062 556.808594 C 366.234375 557.441406 367.148438 558.117188 368.027344 558.839844 C 368.90625 559.558594 369.75 560.320312 370.550781 561.125 C 371.355469 561.929688 372.121094 562.769531 372.84375 563.648438 C 373.5625 564.527344 374.242188 565.4375 374.875 566.382812 C 375.507812 567.328125 376.089844 568.304688 376.628906 569.304688 C 377.164062 570.308594 377.648438 571.335938 378.085938 572.386719 C 378.523438 573.433594 378.90625 574.503906 379.234375 575.59375 C 379.566406 576.679688 379.84375 577.78125 380.066406 578.898438 C 380.289062 580.011719 380.453125 581.136719 380.566406 582.265625 C 380.679688 583.398438 380.734375 584.53125 380.734375 585.667969 C 380.734375 586.808594 380.679688 587.941406 380.566406 589.074219 C 380.457031 590.203125 380.289062 591.328125 380.066406 592.445312 C 379.84375 593.558594 379.566406 594.660156 379.238281 595.75 C 378.90625 596.835938 378.523438 597.90625 378.085938 598.957031 C 377.652344 600.007812 377.167969 601.035156 376.628906 602.039062 C 376.09375 603.039062 375.511719 604.015625 374.878906 604.960938 C 374.246094 605.90625 373.570312 606.816406 372.847656 607.699219 C 372.125 608.578125 371.363281 609.417969 370.558594 610.222656 C 369.753906 611.027344 368.914062 611.789062 368.035156 612.511719 C 367.15625 613.234375 366.242188 613.910156 365.296875 614.542969 C 364.351562 615.175781 363.378906 615.761719 362.375 616.296875 C 361.371094 616.832031 360.34375 617.320312 359.296875 617.753906 C 358.246094 618.191406 357.175781 618.574219 356.085938 618.90625 C 355 619.238281 353.898438 619.515625 352.78125 619.738281 C 351.664062 619.960938 350.542969 620.128906 349.410156 620.238281 C 348.277344 620.351562 347.144531 620.410156 346.007812 620.410156 Z M 346.007812 620.410156 " fill-opacity="1" fill-rule="evenodd"/><path fill="#ffffff" d="M 535.625 517.671875 C 534.511719 517.671875 533.398438 517.699219 532.285156 517.753906 C 531.171875 517.808594 530.0625 517.890625 528.957031 517.996094 C 527.847656 518.105469 526.742188 518.242188 525.640625 518.40625 C 524.539062 518.570312 523.441406 518.761719 522.351562 518.976562 C 521.257812 519.195312 520.171875 519.4375 519.09375 519.707031 C 518.011719 519.980469 516.941406 520.273438 515.875 520.597656 C 514.808594 520.921875 513.753906 521.269531 512.703125 521.644531 C 511.65625 522.019531 510.617188 522.421875 509.589844 522.847656 C 508.558594 523.273438 507.542969 523.722656 506.535156 524.199219 C 505.53125 524.675781 504.535156 525.175781 503.554688 525.699219 C 502.570312 526.226562 501.601562 526.773438 500.648438 527.347656 C 499.691406 527.917969 498.753906 528.511719 497.828125 529.132812 C 496.902344 529.75 495.992188 530.390625 495.097656 531.054688 C 494.203125 531.71875 493.324219 532.402344 492.464844 533.109375 C 491.601562 533.8125 490.761719 534.542969 489.933594 535.289062 C 489.109375 536.035156 488.304688 536.804688 487.515625 537.589844 C 486.730469 538.378906 485.960938 539.183594 485.214844 540.007812 C 484.464844 540.832031 483.738281 541.675781 483.035156 542.535156 C 482.328125 543.398438 481.640625 544.273438 480.980469 545.167969 C 480.316406 546.0625 479.675781 546.972656 479.054688 547.898438 C 478.4375 548.824219 477.84375 549.765625 477.269531 550.71875 C 476.695312 551.671875 476.148438 552.640625 475.625 553.625 C 475.097656 554.605469 474.597656 555.597656 474.121094 556.605469 C 473.644531 557.613281 473.195312 558.628906 472.769531 559.65625 C 472.34375 560.6875 471.941406 561.726562 471.566406 562.773438 C 471.191406 563.820312 470.84375 564.878906 470.519531 565.941406 C 470.195312 567.007812 469.898438 568.082031 469.628906 569.160156 C 469.359375 570.242188 469.113281 571.328125 468.898438 572.417969 C 468.679688 573.511719 468.488281 574.605469 468.328125 575.707031 C 468.164062 576.808594 468.027344 577.914062 467.917969 579.019531 C 467.808594 580.128906 467.726562 581.238281 467.671875 582.351562 C 467.617188 583.460938 467.589844 584.574219 467.589844 585.6875 C 467.589844 586.800781 467.617188 587.914062 467.671875 589.027344 C 467.726562 590.136719 467.808594 591.246094 467.917969 592.355469 C 468.027344 593.464844 468.164062 594.566406 468.324219 595.667969 C 468.488281 596.769531 468.679688 597.867188 468.894531 598.957031 C 469.113281 600.050781 469.355469 601.136719 469.628906 602.214844 C 469.898438 603.292969 470.195312 604.367188 470.519531 605.433594 C 470.839844 606.496094 471.191406 607.554688 471.566406 608.601562 C 471.941406 609.652344 472.339844 610.6875 472.765625 611.71875 C 473.191406 612.746094 473.644531 613.761719 474.121094 614.769531 C 474.597656 615.777344 475.097656 616.769531 475.621094 617.75 C 476.144531 618.734375 476.695312 619.703125 477.265625 620.65625 C 477.839844 621.609375 478.433594 622.550781 479.054688 623.476562 C 479.671875 624.402344 480.3125 625.3125 480.976562 626.207031 C 481.640625 627.101562 482.324219 627.976562 483.03125 628.839844 C 483.738281 629.699219 484.464844 630.542969 485.210938 631.367188 C 485.960938 632.191406 486.726562 632.996094 487.515625 633.785156 C 488.300781 634.570312 489.109375 635.339844 489.933594 636.085938 C 490.757812 636.832031 491.601562 637.558594 492.460938 638.265625 C 493.320312 638.972656 494.199219 639.65625 495.09375 640.320312 C 495.988281 640.984375 496.898438 641.625 497.824219 642.242188 C 498.75 642.859375 499.691406 643.457031 500.644531 644.027344 C 501.601562 644.601562 502.570312 645.148438 503.550781 645.675781 C 504.53125 646.199219 505.527344 646.699219 506.535156 647.175781 C 507.539062 647.652344 508.558594 648.101562 509.585938 648.527344 C 510.617188 648.953125 511.652344 649.355469 512.703125 649.730469 C 513.75 650.105469 514.808594 650.453125 515.875 650.777344 C 516.9375 651.101562 518.011719 651.398438 519.089844 651.667969 C 520.171875 651.9375 521.257812 652.183594 522.351562 652.398438 C 523.441406 652.617188 524.539062 652.804688 525.640625 652.96875 C 526.742188 653.132812 527.847656 653.269531 528.953125 653.378906 C 530.0625 653.488281 531.171875 653.570312 532.285156 653.625 C 533.398438 653.679688 534.511719 653.707031 535.625 653.707031 C 536.738281 653.707031 537.851562 653.679688 538.960938 653.625 C 540.074219 653.570312 541.183594 653.488281 542.292969 653.378906 C 543.402344 653.269531 544.507812 653.132812 545.609375 652.96875 C 546.710938 652.804688 547.804688 652.613281 548.898438 652.394531 C 549.992188 652.179688 551.078125 651.933594 552.15625 651.664062 C 553.238281 651.394531 554.3125 651.097656 555.375 650.773438 C 556.441406 650.449219 557.5 650.101562 558.546875 649.726562 C 559.597656 649.351562 560.636719 648.949219 561.664062 648.523438 C 562.691406 648.097656 563.710938 647.644531 564.71875 647.167969 C 565.722656 646.691406 566.71875 646.191406 567.699219 645.667969 C 568.683594 645.144531 569.652344 644.59375 570.605469 644.019531 C 571.5625 643.449219 572.5 642.851562 573.425781 642.234375 C 574.351562 641.617188 575.261719 640.976562 576.15625 640.3125 C 577.050781 639.648438 577.929688 638.964844 578.789062 638.257812 C 579.652344 637.550781 580.492188 636.824219 581.320312 636.074219 C 582.144531 635.328125 582.949219 634.558594 583.738281 633.773438 C 584.523438 632.984375 585.292969 632.179688 586.039062 631.355469 C 586.789062 630.53125 587.515625 629.6875 588.222656 628.824219 C 588.925781 627.964844 589.613281 627.085938 590.273438 626.191406 C 590.9375 625.300781 591.578125 624.390625 592.199219 623.464844 C 592.816406 622.539062 593.410156 621.597656 593.984375 620.640625 C 594.554688 619.6875 595.105469 618.71875 595.628906 617.738281 C 596.15625 616.753906 596.65625 615.761719 597.128906 614.753906 C 597.605469 613.746094 598.058594 612.730469 598.484375 611.703125 C 598.910156 610.671875 599.308594 609.632812 599.683594 608.585938 C 600.058594 607.539062 600.410156 606.480469 600.730469 605.414062 C 601.054688 604.351562 601.351562 603.277344 601.621094 602.199219 C 601.890625 601.117188 602.136719 600.03125 602.351562 598.941406 C 602.570312 597.847656 602.757812 596.75 602.921875 595.652344 C 603.085938 594.550781 603.222656 593.445312 603.332031 592.335938 C 603.441406 591.230469 603.519531 590.117188 603.574219 589.007812 C 603.628906 587.894531 603.65625 586.78125 603.65625 585.667969 C 603.65625 584.558594 603.628906 583.445312 603.574219 582.332031 C 603.515625 581.222656 603.433594 580.113281 603.324219 579.003906 C 603.214844 577.898438 603.078125 576.792969 602.914062 575.691406 C 602.75 574.589844 602.558594 573.496094 602.34375 572.402344 C 602.125 571.3125 601.878906 570.226562 601.609375 569.148438 C 601.339844 568.066406 601.042969 566.996094 600.71875 565.929688 C 600.394531 564.867188 600.046875 563.808594 599.667969 562.761719 C 599.292969 561.714844 598.894531 560.675781 598.46875 559.648438 C 598.039062 558.621094 597.589844 557.605469 597.113281 556.597656 C 596.636719 555.59375 596.136719 554.597656 595.613281 553.617188 C 595.085938 552.636719 594.539062 551.667969 593.964844 550.714844 C 593.390625 549.757812 592.796875 548.820312 592.179688 547.894531 C 591.558594 546.96875 590.917969 546.058594 590.253906 545.167969 C 589.59375 544.273438 588.90625 543.394531 588.199219 542.535156 C 587.496094 541.675781 586.769531 540.832031 586.019531 540.007812 C 585.273438 539.183594 584.503906 538.378906 583.71875 537.589844 C 582.929688 536.804688 582.125 536.039062 581.300781 535.289062 C 580.476562 534.542969 579.632812 533.816406 578.773438 533.109375 C 577.910156 532.40625 577.035156 531.71875 576.140625 531.058594 C 575.246094 530.394531 574.335938 529.753906 573.410156 529.136719 C 572.484375 528.519531 571.542969 527.921875 570.589844 527.351562 C 569.636719 526.777344 568.667969 526.230469 567.683594 525.707031 C 566.703125 525.179688 565.710938 524.679688 564.703125 524.203125 C 563.695312 523.730469 562.679688 523.277344 561.652344 522.851562 C 560.621094 522.425781 559.585938 522.023438 558.535156 521.648438 C 557.488281 521.273438 556.433594 520.925781 555.367188 520.601562 C 554.300781 520.28125 553.230469 519.984375 552.148438 519.710938 C 551.070312 519.441406 549.984375 519.199219 548.890625 518.980469 C 547.800781 518.761719 546.703125 518.574219 545.601562 518.410156 C 544.503906 518.246094 543.398438 518.109375 542.289062 518 C 541.183594 517.890625 540.074219 517.808594 538.960938 517.753906 C 537.847656 517.699219 536.738281 517.671875 535.625 517.671875 Z M 535.625 620.410156 C 534.484375 620.410156 533.351562 620.355469 532.21875 620.242188 C 531.085938 620.132812 529.964844 619.964844 528.847656 619.742188 C 527.730469 619.519531 526.628906 619.246094 525.542969 618.914062 C 524.453125 618.582031 523.382812 618.199219 522.332031 617.765625 C 521.28125 617.332031 520.253906 616.84375 519.25 616.308594 C 518.246094 615.773438 517.273438 615.1875 516.328125 614.558594 C 515.382812 613.925781 514.46875 613.25 513.589844 612.527344 C 512.710938 611.804688 511.871094 611.042969 511.066406 610.238281 C 510.261719 609.433594 509.496094 608.59375 508.777344 607.714844 C 508.054688 606.835938 507.378906 605.921875 506.746094 604.976562 C 506.113281 604.03125 505.53125 603.058594 504.992188 602.054688 C 504.457031 601.050781 503.972656 600.023438 503.535156 598.976562 C 503.101562 597.925781 502.71875 596.855469 502.386719 595.765625 C 502.058594 594.679688 501.78125 593.578125 501.558594 592.460938 C 501.339844 591.347656 501.171875 590.222656 501.058594 589.089844 C 500.949219 587.960938 500.894531 586.824219 500.894531 585.6875 C 500.894531 584.550781 500.949219 583.417969 501.058594 582.285156 C 501.171875 581.15625 501.335938 580.03125 501.558594 578.917969 C 501.78125 577.800781 502.054688 576.699219 502.386719 575.613281 C 502.714844 574.523438 503.097656 573.453125 503.535156 572.40625 C 503.96875 571.355469 504.453125 570.328125 504.988281 569.324219 C 505.527344 568.320312 506.109375 567.347656 506.742188 566.402344 C 507.371094 565.457031 508.050781 564.542969 508.769531 563.664062 C 509.492188 562.785156 510.253906 561.945312 511.058594 561.140625 C 511.863281 560.335938 512.703125 559.574219 513.582031 558.851562 C 514.460938 558.132812 515.375 557.453125 516.320312 556.824219 C 517.265625 556.191406 518.238281 555.605469 519.242188 555.070312 C 520.246094 554.535156 521.273438 554.046875 522.324219 553.613281 C 523.371094 553.175781 524.441406 552.792969 525.53125 552.464844 C 526.617188 552.132812 527.722656 551.859375 528.835938 551.636719 C 529.953125 551.414062 531.074219 551.246094 532.207031 551.132812 C 533.339844 551.023438 534.472656 550.964844 535.609375 550.964844 C 536.746094 550.964844 537.882812 551.019531 539.015625 551.132812 C 540.144531 551.242188 541.269531 551.410156 542.386719 551.628906 C 543.5 551.851562 544.601562 552.128906 545.691406 552.457031 C 546.78125 552.785156 547.851562 553.167969 548.902344 553.605469 C 549.953125 554.039062 550.980469 554.523438 551.980469 555.058594 C 552.984375 555.59375 553.960938 556.179688 554.90625 556.808594 C 555.851562 557.441406 556.765625 558.117188 557.644531 558.839844 C 558.523438 559.558594 559.367188 560.320312 560.171875 561.125 C 560.976562 561.929688 561.738281 562.769531 562.460938 563.648438 C 563.183594 564.527344 563.859375 565.4375 564.492188 566.382812 C 565.125 567.328125 565.707031 568.304688 566.246094 569.304688 C 566.78125 570.308594 567.265625 571.335938 567.703125 572.386719 C 568.140625 573.433594 568.523438 574.503906 568.851562 575.59375 C 569.183594 576.679688 569.460938 577.78125 569.683594 578.898438 C 569.90625 580.011719 570.074219 581.136719 570.183594 582.265625 C 570.296875 583.398438 570.351562 584.53125 570.355469 585.667969 C 570.351562 586.808594 570.296875 587.941406 570.183594 589.074219 C 570.074219 590.203125 569.90625 591.328125 569.683594 592.445312 C 569.460938 593.558594 569.183594 594.660156 568.855469 595.75 C 568.523438 596.835938 568.140625 597.90625 567.707031 598.957031 C 567.269531 600.007812 566.785156 601.035156 566.246094 602.039062 C 565.710938 603.039062 565.128906 604.015625 564.496094 604.960938 C 563.863281 605.90625 563.1875 606.816406 562.464844 607.699219 C 561.742188 608.578125 560.980469 609.417969 560.175781 610.222656 C 559.371094 611.027344 558.53125 611.789062 557.652344 612.511719 C 556.773438 613.234375 555.859375 613.910156 554.914062 614.542969 C 553.96875 615.175781 552.996094 615.761719 551.992188 616.296875 C 550.988281 616.832031 549.964844 617.320312 548.914062 617.753906 C 547.863281 618.191406 546.792969 618.574219 545.703125 618.90625 C 544.617188 619.238281 543.515625 619.515625 542.398438 619.738281 C 541.28125 619.960938 540.160156 620.128906 539.027344 620.238281 C 537.894531 620.351562 536.761719 620.410156 535.625 620.410156 Z M 535.625 620.410156 " fill-opacity="1" fill-rule="evenodd"/></svg>