<svg xmlns="http://www.w3.org/2000/svg" xmlns:xlink="http://www.w3.org/1999/xlink" width="1080" zoomAndPan="magnify" viewBox="0 0 810 809.999993" height="1080" preserveAspectRatio="xMidYMid meet" version="1.0"><defs><clipPath id="d77f5dd8e8"><path d="M 448 296 L 733.5 296 L 733.5 542 L 448 542 Z M 448 296 " clip-rule="nonzero"/></clipPath><clipPath id="42f6c45b79"><path d="M 543 459 L 680 459 L 680 595.503906 L 543 595.503906 Z M 543 459 " clip-rule="nonzero"/></clipPath><clipPath id="9797ed4b81"><path d="M 244 459 L 381 459 L 381 595.503906 L 244 595.503906 Z M 244 459 " clip-rule="nonzero"/></clipPath><clipPath id="bebcf9d5a2"><path d="M 189 214.503906 L 544 214.503906 L 544 542 L 189 542 Z M 189 214.503906 " clip-rule="nonzero"/></clipPath></defs><path fill="#ffffff" d="M 257.71875 541.003906 L 203.34375 541.003906 C 195.839844 541.003906 189.75 534.910156 189.75 527.40625 C 189.75 519.898438 195.839844 513.804688 203.34375 513.804688 L 257.71875 513.804688 C 265.222656 513.804688 271.3125 519.898438 271.3125 527.40625 C 271.3125 534.910156 265.222656 541.003906 257.71875 541.003906 Z M 257.71875 541.003906 " fill-opacity="1" fill-rule="nonzero"/><g clip-path="url(#d77f5dd8e8)"><path fill="#ffffff" d="M 699.515625 541.003906 L 665.53125 541.003906 C 658.027344 541.003906 651.9375 534.910156 651.9375 527.40625 C 651.9375 519.898438 658.027344 513.804688 665.53125 513.804688 L 688.234375 513.804688 L 706.558594 416.101562 C 706.3125 366.109375 663.628906 323.40625 611.15625 323.40625 L 521.898438 323.40625 L 478.644531 513.804688 L 556.78125 513.804688 C 564.285156 513.804688 570.375 519.898438 570.375 527.40625 C 570.375 534.910156 564.285156 541.003906 556.78125 541.003906 L 461.625 541.003906 C 457.492188 541.003906 453.578125 539.128906 450.996094 535.890625 C 448.410156 532.679688 447.433594 528.4375 448.359375 524.414062 L 497.785156 306.8125 C 499.199219 300.582031 504.691406 296.203125 511.050781 296.203125 L 611.15625 296.203125 C 678.609375 296.203125 733.5 351.121094 733.5 418.605469 L 712.863281 529.90625 C 711.667969 536.355469 706.066406 541.003906 699.515625 541.003906 Z M 699.515625 541.003906 " fill-opacity="1" fill-rule="nonzero"/></g><g clip-path="url(#42f6c45b79)"><path fill="#ffffff" d="M 611.15625 595.40625 C 573.691406 595.40625 543.1875 564.914062 543.1875 527.40625 C 543.1875 489.894531 573.691406 459.40625 611.15625 459.40625 C 648.621094 459.40625 679.125 489.894531 679.125 527.40625 C 679.125 564.914062 648.621094 595.40625 611.15625 595.40625 Z M 611.15625 486.605469 C 588.671875 486.605469 570.375 504.910156 570.375 527.40625 C 570.375 549.898438 588.671875 568.203125 611.15625 568.203125 C 633.640625 568.203125 651.9375 549.898438 651.9375 527.40625 C 651.9375 504.910156 633.640625 486.605469 611.15625 486.605469 Z M 611.15625 486.605469 " fill-opacity="1" fill-rule="nonzero"/></g><g clip-path="url(#9797ed4b81)"><path fill="#ffffff" d="M 312.09375 595.40625 C 274.628906 595.40625 244.125 564.914062 244.125 527.40625 C 244.125 489.894531 274.628906 459.40625 312.09375 459.40625 C 349.558594 459.40625 380.0625 489.894531 380.0625 527.40625 C 380.0625 564.914062 349.558594 595.40625 312.09375 595.40625 Z M 312.09375 486.605469 C 289.609375 486.605469 271.3125 504.910156 271.3125 527.40625 C 271.3125 549.898438 289.609375 568.203125 312.09375 568.203125 C 334.578125 568.203125 352.875 549.898438 352.875 527.40625 C 352.875 504.910156 334.578125 486.605469 312.09375 486.605469 Z M 312.09375 486.605469 " fill-opacity="1" fill-rule="nonzero"/></g><path fill="#ffffff" d="M 257.71875 296.203125 L 148.96875 296.203125 C 141.464844 296.203125 135.375 290.113281 135.375 282.605469 C 135.375 275.097656 141.464844 269.003906 148.96875 269.003906 L 257.71875 269.003906 C 265.222656 269.003906 271.3125 275.097656 271.3125 282.605469 C 271.3125 290.113281 265.222656 296.203125 257.71875 296.203125 Z M 257.71875 296.203125 " fill-opacity="1" fill-rule="nonzero"/><path fill="#ffffff" d="M 257.71875 377.804688 L 121.78125 377.804688 C 114.277344 377.804688 108.1875 371.710938 108.1875 364.203125 C 108.1875 356.699219 114.277344 350.605469 121.78125 350.605469 L 257.71875 350.605469 C 265.222656 350.605469 271.3125 356.699219 271.3125 364.203125 C 271.3125 371.710938 265.222656 377.804688 257.71875 377.804688 Z M 257.71875 377.804688 " fill-opacity="1" fill-rule="nonzero"/><path fill="#ffffff" d="M 257.71875 459.40625 L 94.59375 459.40625 C 87.089844 459.40625 81 453.3125 81 445.804688 C 81 438.296875 87.089844 432.203125 94.59375 432.203125 L 257.71875 432.203125 C 265.222656 432.203125 271.3125 438.296875 271.3125 445.804688 C 271.3125 453.3125 265.222656 459.40625 257.71875 459.40625 Z M 257.71875 459.40625 " fill-opacity="1" fill-rule="nonzero"/><g clip-path="url(#bebcf9d5a2)"><path fill="#ffffff" d="M 461.625 541.003906 L 366.46875 541.003906 C 358.964844 541.003906 352.875 534.910156 352.875 527.40625 C 352.875 519.898438 358.964844 513.804688 366.46875 513.804688 L 450.777344 513.804688 L 512.546875 241.804688 L 203.34375 241.804688 C 195.839844 241.804688 189.75 235.710938 189.75 228.203125 C 189.75 220.695312 195.839844 214.605469 203.34375 214.605469 L 529.59375 214.605469 C 533.726562 214.605469 537.640625 216.480469 540.222656 219.71875 C 542.808594 222.925781 543.785156 227.171875 542.859375 231.195312 L 474.890625 530.398438 C 473.480469 536.625 467.960938 541.003906 461.625 541.003906 Z M 461.625 541.003906 " fill-opacity="1" fill-rule="nonzero"/></g></svg>