<svg xmlns="http://www.w3.org/2000/svg" xmlns:xlink="http://www.w3.org/1999/xlink" width="1080" zoomAndPan="magnify" viewBox="0 0 810 809.999993" height="1080" preserveAspectRatio="xMidYMid meet" version="1.0"><defs><clipPath id="554e037272"><path d="M 175.855469 176 L 634.105469 176 L 634.105469 633 L 175.855469 633 Z M 175.855469 176 " clip-rule="nonzero"/></clipPath></defs><g clip-path="url(#554e037272)"><path fill="#ffffff" d="M 404.980469 176.738281 C 278.433594 176.738281 175.855469 279.3125 175.855469 405.863281 C 175.855469 520.742188 260.472656 615.582031 370.734375 632.148438 L 370.734375 466.578125 L 314.035156 466.578125 L 314.035156 406.355469 L 370.734375 406.355469 L 370.734375 366.277344 C 370.734375 299.917969 403.058594 270.800781 458.207031 270.800781 C 484.609375 270.800781 498.585938 272.757812 505.195312 273.65625 L 505.195312 326.230469 L 467.585938 326.230469 C 444.179688 326.230469 436 348.421875 436 373.449219 L 436 406.371094 L 504.613281 406.371094 L 495.308594 466.597656 L 436 466.597656 L 436 632.660156 C 547.832031 617.46875 634.105469 521.851562 634.105469 405.863281 C 634.105469 279.3125 531.527344 176.738281 404.980469 176.738281 Z M 404.980469 176.738281 " fill-opacity="1" fill-rule="nonzero"/></g></svg>