<svg xmlns="http://www.w3.org/2000/svg" xmlns:xlink="http://www.w3.org/1999/xlink" width="1080" zoomAndPan="magnify" viewBox="0 0 810 809.999993" height="1080" preserveAspectRatio="xMidYMid meet" version="1.0"><defs><clipPath id="83c859268f"><path d="M 149.742188 149.742188 L 660.492188 149.742188 L 660.492188 660.492188 L 149.742188 660.492188 Z M 149.742188 149.742188 " clip-rule="nonzero"/></clipPath></defs><g clip-path="url(#83c859268f)"><path fill="#ffffff" d="M 405.007812 195.792969 C 473.160156 195.792969 481.214844 196.015625 508.1875 197.25 C 533.03125 198.367188 546.570312 202.507812 555.636719 206.089844 C 567.496094 210.675781 576.003906 216.273438 584.957031 225.226562 C 593.90625 234.179688 599.390625 242.683594 604.089844 254.546875 C 607.5625 263.5 611.703125 277.039062 612.933594 301.996094 C 614.164062 328.964844 614.386719 337.023438 614.386719 405.175781 C 614.386719 473.328125 614.164062 481.382812 612.933594 508.355469 C 611.8125 533.199219 607.671875 546.738281 604.089844 555.804688 C 599.503906 567.664062 593.90625 576.171875 584.957031 585.125 C 576.003906 594.074219 567.496094 599.558594 555.636719 604.257812 C 546.683594 607.730469 533.140625 611.871094 508.1875 613.101562 C 481.214844 614.332031 473.160156 614.554688 405.007812 614.554688 C 336.855469 614.554688 328.796875 614.332031 301.828125 613.101562 C 276.984375 611.980469 263.441406 607.839844 254.378906 604.257812 C 242.515625 599.671875 234.011719 594.074219 225.058594 585.125 C 216.105469 576.171875 210.621094 567.664062 205.921875 555.804688 C 202.453125 546.851562 198.3125 533.308594 197.082031 508.355469 C 195.851562 481.382812 195.625 473.328125 195.625 405.175781 C 195.625 337.023438 195.851562 328.964844 197.082031 301.996094 C 198.199219 277.152344 202.339844 263.609375 205.921875 254.546875 C 210.507812 242.683594 216.105469 234.179688 225.058594 225.226562 C 234.011719 216.273438 242.515625 210.789062 254.378906 206.089844 C 263.332031 202.621094 276.871094 198.480469 301.828125 197.25 C 328.796875 196.015625 336.855469 195.792969 405.007812 195.792969 M 405.007812 149.800781 C 335.625 149.800781 327.007812 150.136719 299.699219 151.367188 C 272.507812 152.597656 253.929688 156.960938 237.703125 163.226562 C 220.917969 169.71875 206.703125 178.449219 192.492188 192.660156 C 178.390625 206.871094 169.664062 221.085938 163.171875 237.871094 C 156.90625 254.097656 152.542969 272.675781 151.308594 299.867188 C 150.078125 327.0625 149.742188 335.792969 149.742188 405.0625 C 149.742188 474.445312 150.078125 483.0625 151.308594 510.367188 C 152.542969 537.5625 156.90625 556.140625 163.171875 572.367188 C 169.664062 589.152344 178.390625 603.363281 192.605469 617.578125 C 206.816406 631.789062 221.027344 640.519531 237.816406 647.007812 C 254.042969 653.273438 272.617188 657.640625 299.8125 658.871094 C 327.007812 660.101562 335.734375 660.4375 405.117188 660.4375 C 474.5 660.4375 483.117188 660.101562 510.425781 658.871094 C 537.617188 657.640625 556.195312 653.273438 572.421875 647.007812 C 589.207031 640.519531 603.421875 631.789062 617.632812 617.578125 C 631.84375 603.363281 640.574219 589.152344 647.0625 572.367188 C 653.332031 556.140625 657.695312 537.5625 658.925781 510.367188 C 660.15625 483.175781 660.492188 474.445312 660.492188 405.0625 C 660.492188 335.679688 660.15625 327.0625 658.925781 299.757812 C 657.695312 272.5625 653.332031 253.984375 647.0625 237.757812 C 640.574219 220.972656 631.84375 206.761719 617.632812 192.546875 C 603.421875 178.335938 589.207031 169.605469 572.421875 163.117188 C 556.195312 156.851562 537.617188 152.484375 510.425781 151.253906 C 483.117188 150.136719 474.390625 149.800781 405.007812 149.800781 " fill-opacity="1" fill-rule="nonzero"/></g><path fill="#ffffff" d="M 405.007812 274.019531 C 332.601562 274.019531 273.960938 332.65625 273.960938 405.0625 C 273.960938 477.46875 332.714844 536.21875 405.117188 536.21875 C 477.523438 536.21875 536.273438 477.578125 536.273438 405.0625 C 536.164062 332.65625 477.410156 274.019531 405.007812 274.019531 M 405.007812 490.226562 C 358.003906 490.226562 319.957031 452.175781 319.957031 405.175781 C 319.957031 358.171875 358.003906 320.125 405.007812 320.125 C 452.007812 320.125 490.058594 358.171875 490.058594 405.175781 C 490.167969 452.0625 452.007812 490.226562 405.007812 490.226562 " fill-opacity="1" fill-rule="nonzero"/><path fill="#ffffff" d="M 571.972656 268.871094 C 571.972656 285.769531 558.210938 299.53125 541.3125 299.53125 C 524.414062 299.53125 510.648438 285.769531 510.648438 268.871094 C 510.648438 251.972656 524.414062 238.207031 541.3125 238.207031 C 558.210938 238.207031 571.972656 251.859375 571.972656 268.871094 " fill-opacity="1" fill-rule="nonzero"/></svg>