<svg xmlns="http://www.w3.org/2000/svg" xmlns:xlink="http://www.w3.org/1999/xlink" width="1080" zoomAndPan="magnify" viewBox="0 0 810 809.999993" height="1080" preserveAspectRatio="xMidYMid meet" version="1.0"><defs><clipPath id="6011777607"><path d="M 67.089844 196 L 405 196 L 405 614 L 67.089844 614 Z M 67.089844 196 " clip-rule="nonzero"/></clipPath><clipPath id="09dc4938fd"><path d="M 404 196 L 742.839844 196 L 742.839844 614 L 404 614 Z M 404 196 " clip-rule="nonzero"/></clipPath></defs><path fill="#ff5f00" d="M 313.597656 240.761719 L 496.332031 240.761719 L 496.332031 569.074219 L 313.597656 569.074219 Z M 313.597656 240.761719 " fill-opacity="1" fill-rule="nonzero"/><g clip-path="url(#6011777607)"><path fill="#eb001b" d="M 325.199219 404.929688 C 325.199219 338.328125 356.394531 279.015625 404.964844 240.789062 C 368.195312 211.792969 322.722656 196.085938 275.925781 196.140625 C 160.570312 196.140625 67.089844 289.628906 67.089844 404.929688 C 67.089844 520.234375 160.570312 613.722656 275.898438 613.722656 C 322.722656 613.777344 368.195312 598.070312 404.9375 569.074219 C 356.394531 530.847656 325.199219 471.535156 325.199219 404.929688 Z M 325.199219 404.929688 " fill-opacity="1" fill-rule="nonzero"/></g><g clip-path="url(#09dc4938fd)"><path fill="#f79e1b" d="M 742.839844 404.929688 C 742.839844 520.234375 649.363281 613.722656 534.035156 613.722656 C 487.210938 613.777344 441.738281 598.070312 404.964844 569.074219 C 453.535156 530.847656 484.730469 471.535156 484.730469 404.929688 C 484.730469 338.328125 453.535156 279.015625 404.964844 240.789062 C 441.738281 211.792969 487.210938 196.085938 534.035156 196.140625 C 649.363281 196.140625 742.839844 289.628906 742.839844 404.929688 Z M 742.839844 404.929688 " fill-opacity="1" fill-rule="nonzero"/></g></svg>