<svg xmlns="http://www.w3.org/2000/svg" xmlns:xlink="http://www.w3.org/1999/xlink" width="1080" zoomAndPan="magnify" viewBox="0 0 810 809.999993" height="1080" preserveAspectRatio="xMidYMid meet" version="1.0"><defs><clipPath id="4625efbdfc"><path d="M 117.238281 117.238281 L 692.488281 117.238281 L 692.488281 692.488281 L 117.238281 692.488281 Z M 117.238281 117.238281 " clip-rule="nonzero"/></clipPath></defs><g clip-path="url(#4625efbdfc)"><path fill="#f3f2f2" d="M 117.238281 404.863281 C 117.238281 246.035156 246.035156 117.238281 404.863281 117.238281 C 563.6875 117.238281 692.488281 246.035156 692.488281 404.863281 C 692.488281 563.6875 563.6875 692.488281 404.863281 692.488281 C 246.035156 692.488281 117.238281 563.6875 117.238281 404.863281 Z M 117.238281 404.863281 " fill-opacity="1" fill-rule="nonzero"/></g><path fill="#1a80ad" d="M 538.878906 356.519531 C 526.9375 356.519531 517.429688 359.648438 510.242188 361.15625 L 508.039062 379.355469 C 511.632812 377.617188 523.113281 374.488281 532.5 374.140625 C 542.007812 373.910156 547.574219 375.878906 545.601562 383.996094 C 517.429688 383.996094 498.535156 389.789062 494.707031 407.992188 C 489.144531 439.175781 523.34375 438.367188 537.023438 424.6875 L 535.398438 432.222656 L 560.441406 432.222656 L 571.339844 382.601562 C 575.628906 361.503906 556.382812 356.285156 538.878906 356.519531 M 540.5 407.414062 C 539.109375 414.019531 533.777344 416.917969 527.402344 417.265625 C 521.835938 417.5 516.851562 412.628906 520.445312 406.832031 C 523.226562 401.964844 530.996094 400.804688 535.746094 400.804688 L 541.890625 400.804688 C 541.3125 403.007812 541.082031 405.09375 540.5 407.414062 " fill-opacity="1" fill-rule="evenodd"/><path fill="#1a80ad" d="M 592.554688 336.925781 L 571.800781 432.222656 L 597.308594 432.222656 L 618.289062 336.925781 Z M 592.554688 336.925781 " fill-opacity="1" fill-rule="evenodd"/><path fill="#1a80ad" d="M 475.695312 337.15625 L 429.089844 337.15625 L 408.457031 432.105469 L 435.46875 432.105469 L 442.421875 400.6875 L 461.667969 400.6875 C 480.679688 400.6875 496.214844 389.09375 500.390625 369.503906 C 505.257812 347.359375 489.027344 337.15625 475.695312 337.15625 M 474.882812 369.503906 C 473.261719 376.691406 465.957031 382.488281 459 382.488281 L 446.480469 382.488281 L 452.046875 356.519531 L 465.378906 356.519531 C 472.332031 356.519531 476.507812 362.316406 474.882812 369.503906 " fill-opacity="1" fill-rule="evenodd"/><path fill="#1a5b80" d="M 294.84375 356.519531 C 283.019531 356.519531 273.628906 359.648438 266.789062 361.15625 L 264.585938 379.355469 C 267.832031 377.617188 279.191406 374.488281 288.46875 374.140625 C 297.859375 373.910156 303.304688 375.878906 301.683594 383.996094 C 273.859375 383.996094 255.195312 389.789062 251.367188 407.992188 C 245.921875 439.175781 279.65625 438.367188 292.871094 424.6875 L 291.25 432.222656 L 316.289062 432.222656 L 326.957031 382.601562 C 331.476562 361.503906 312.234375 356.285156 294.84375 356.519531 M 296.8125 407.414062 C 295.421875 414.019531 289.972656 416.917969 283.597656 417.265625 C 278.148438 417.5 273.394531 412.628906 276.988281 406.832031 C 279.773438 401.964844 287.421875 400.804688 291.828125 400.804688 L 298.207031 400.804688 C 297.625 403.007812 297.046875 405.09375 296.8125 407.414062 " fill-opacity="1" fill-rule="evenodd"/><path fill="#1a5b80" d="M 337.96875 357.910156 L 363.011719 357.910156 L 367.066406 402.195312 L 391.53125 357.910156 L 417.265625 357.910156 L 357.910156 463.753906 L 329.855469 463.753906 L 348.171875 432.683594 Z M 337.96875 357.910156 " fill-opacity="1" fill-rule="evenodd"/><path fill="#1a5b80" d="M 232.703125 337.15625 L 185.984375 337.15625 L 165.230469 432.105469 L 192.707031 432.105469 L 199.433594 400.6875 L 219.023438 400.6875 C 237.804688 400.6875 253.457031 389.09375 257.628906 369.503906 C 262.265625 347.359375 246.382812 337.15625 232.703125 337.15625 M 231.777344 369.503906 C 230.152344 376.691406 223.082031 382.488281 216.125 382.488281 L 203.257812 382.488281 L 209.171875 356.519531 L 222.617188 356.519531 C 229.34375 356.519531 233.746094 362.316406 231.777344 369.503906 " fill-opacity="1" fill-rule="evenodd"/><path fill="#1a5b80" d="M 623.738281 349.214844 L 623.738281 337.96875 L 619.566406 337.96875 L 619.566406 336.460938 L 629.652344 336.460938 L 629.652344 337.96875 L 625.480469 337.96875 L 625.480469 349.214844 Z M 623.738281 349.214844 " fill-opacity="1" fill-rule="nonzero"/><path fill="#1a5b80" d="M 631.390625 349.214844 L 631.390625 336.460938 L 633.941406 336.460938 L 636.957031 345.503906 C 637.1875 346.316406 637.417969 347.011719 637.535156 347.359375 C 637.652344 346.894531 637.882812 346.199219 638.230469 345.273438 L 641.246094 336.460938 L 643.5625 336.460938 L 643.5625 349.214844 L 641.941406 349.214844 L 641.941406 338.550781 L 638.230469 349.214844 L 636.722656 349.214844 L 633.015625 338.316406 L 633.015625 349.214844 Z M 631.390625 349.214844 " fill-opacity="1" fill-rule="nonzero"/></svg>