<svg xmlns="http://www.w3.org/2000/svg" xmlns:xlink="http://www.w3.org/1999/xlink" width="1080" zoomAndPan="magnify" viewBox="0 0 810 809.999993" height="1080" preserveAspectRatio="xMidYMid meet" version="1.0"><defs><clipPath id="da1f1a3093"><path d="M 154.539062 154.539062 L 653 154.539062 L 653 653 L 154.539062 653 Z M 154.539062 154.539062 " clip-rule="nonzero"/></clipPath></defs><g clip-path="url(#da1f1a3093)"><path fill="#ffffff" d="M 476.558594 520.894531 L 599.265625 643.5625 C 611.417969 655.707031 631.148438 655.703125 643.296875 643.554688 C 655.441406 631.402344 655.4375 611.671875 643.289062 599.523438 L 520.660156 476.9375 C 545.332031 443.386719 559.914062 401.949219 559.914062 357.132812 C 559.914062 245.316406 469.132812 154.539062 357.320312 154.539062 C 245.503906 154.539062 154.726562 245.316406 154.726562 357.132812 C 154.726562 468.949219 245.503906 559.726562 357.320312 559.726562 C 401.878906 559.726562 443.09375 545.3125 476.558594 520.894531 Z M 357.320312 216.808594 C 434.765625 216.808594 497.648438 279.683594 497.648438 357.132812 C 497.648438 434.582031 434.765625 497.460938 357.320312 497.460938 C 279.871094 497.460938 216.996094 434.582031 216.996094 357.132812 C 216.996094 279.683594 279.871094 216.808594 357.320312 216.808594 Z M 357.320312 216.808594 " fill-opacity="1" fill-rule="evenodd"/></g></svg>