<svg xmlns="http://www.w3.org/2000/svg" xmlns:xlink="http://www.w3.org/1999/xlink" width="1080" zoomAndPan="magnify" viewBox="0 0 810 809.999993" height="1080" preserveAspectRatio="xMidYMid meet" version="1.0"><defs><clipPath id="28f8291362"><path d="M 71.40625 71.40625 L 738.90625 71.40625 L 738.90625 738.90625 L 71.40625 738.90625 Z M 71.40625 71.40625 " clip-rule="nonzero"/></clipPath></defs><g clip-path="url(#28f8291362)"><path fill="#ffffff" d="M 405.15625 71.40625 C 221.816406 71.40625 71.40625 221.816406 71.40625 405.15625 C 71.40625 588.496094 221.816406 738.90625 405.15625 738.90625 C 588.496094 738.90625 738.90625 588.496094 738.90625 405.15625 C 738.90625 221.816406 590.277344 71.40625 405.15625 71.40625 Z M 558.683594 553.789062 C 552.007812 563.578125 540.4375 567.136719 530.203125 560.460938 C 451.882812 511.957031 353.539062 502.167969 236.503906 528.867188 C 224.933594 532.429688 214.699219 523.972656 211.582031 513.738281 C 208.023438 502.167969 216.476562 491.933594 226.710938 488.816406 C 353.539062 460.335938 463.898438 471.90625 550.671875 525.308594 C 562.242188 530.203125 563.578125 543.554688 558.683594 553.789062 Z M 598.734375 461.671875 C 590.277344 473.242188 575.148438 478.582031 563.578125 470.128906 C 473.6875 414.949219 336.628906 398.484375 231.609375 431.859375 C 218.257812 435.417969 203.128906 428.296875 200.011719 414.949219 C 196.453125 401.597656 203.574219 386.46875 216.921875 383.351562 C 338.40625 346.863281 488.816406 365.109375 592.058594 428.296875 C 602.292969 433.636719 607.1875 450.101562 598.734375 461.671875 Z M 602.292969 368.667969 C 495.492188 305.476562 317.046875 298.359375 215.144531 330.398438 C 198.234375 335.292969 181.769531 325.503906 176.871094 310.371094 C 171.976562 293.464844 181.769531 276.996094 196.898438 272.101562 C 315.269531 236.949219 510.621094 243.621094 633.886719 317.046875 C 649.019531 325.503906 653.914062 345.527344 645.457031 360.214844 C 637.003906 371.78125 616.976562 376.679688 602.292969 368.667969 Z M 602.292969 368.667969 " fill-opacity="1" fill-rule="nonzero"/></g></svg>