<?xml version="1.0" encoding="utf-8"?>
<!-- Generator: Adobe Illustrator 25.4.1, SVG Export Plug-In . SVG Version: 6.00 Build 0)  -->
<svg version="1.1" id="Capa_1" xmlns="http://www.w3.org/2000/svg" xmlns:xlink="http://www.w3.org/1999/xlink" x="0px" y="0px"
	 viewBox="0 0 1080 1080" style="enable-background:new 0 0 1080 1080;" xml:space="preserve">
<style type="text/css">
	.st0{clip-path:url(#SVGID_00000034079500893810317470000005615509184338627719_);}
	.st1{fill:#FFFFFF;}
</style>
<g>
	<defs>
		<rect id="SVGID_1_" x="190.7" y="190.7" width="698.9" height="698.9"/>
	</defs>
	<clipPath id="SVGID_00000163058141998483848330000011012597711247493268_">
		<use xlink:href="#SVGID_1_"  style="overflow:visible;"/>
	</clipPath>
	<g style="clip-path:url(#SVGID_00000163058141998483848330000011012597711247493268_);">
		<path class="st1" d="M540.2,190.7c-192,0-349.5,157.5-349.5,349.5s157.5,349.5,349.5,349.5s349.5-157.5,349.5-349.5
			S734,190.7,540.2,190.7z M701,695.8c-7,10.2-19.1,14-29.8,7c-82-50.8-185-61-307.5-33.1c-12.1,3.7-22.8-5.1-26.1-15.8
			c-3.7-12.1,5.1-22.8,15.8-26.1C486.2,598,601.7,610.1,692.6,666C704.7,671.1,706.1,685.1,701,695.8z M742.9,599.4
			c-8.9,12.1-24.7,17.7-36.8,8.9c-94.1-57.8-237.6-75-347.6-40.1c-14,3.7-29.8-3.7-33.1-17.7c-3.7-14,3.7-29.8,17.7-33.1
			c127.2-38.2,284.7-19.1,392.8,47.1C746.6,570,751.8,587.3,742.9,599.4z M746.6,502c-111.8-66.2-298.7-73.6-405.4-40.1
			c-17.7,5.1-34.9-5.1-40.1-21c-5.1-17.7,5.1-34.9,21-40.1c123.9-36.8,328.5-29.8,457.6,47.1c15.8,8.9,21,29.8,12.1,45.2
			C783,505.3,762,510.4,746.6,502z"/>
	</g>
</g>
</svg>
