<svg xmlns="http://www.w3.org/2000/svg" xmlns:xlink="http://www.w3.org/1999/xlink" width="1080" zoomAndPan="magnify" viewBox="0 0 810 809.999993" height="1080" preserveAspectRatio="xMidYMid meet" version="1.0"><defs><clipPath id="8e233868f4"><path d="M 87.640625 87.640625 L 722.140625 87.640625 L 722.140625 722.140625 L 87.640625 722.140625 Z M 87.640625 87.640625 " clip-rule="nonzero"/></clipPath><clipPath id="edb0050e7d"><path d="M 123 551 L 687 551 L 687 722.140625 L 123 722.140625 Z M 123 551 " clip-rule="nonzero"/></clipPath><clipPath id="8d088d9054"><path d="M 125 87.640625 L 684 87.640625 L 684 254 L 125 254 Z M 125 87.640625 " clip-rule="nonzero"/></clipPath></defs><g clip-path="url(#8e233868f4)"><path fill="#f3f2f2" d="M 87.640625 404.890625 C 87.640625 229.707031 229.707031 87.640625 404.890625 87.640625 C 580.074219 87.640625 722.140625 229.707031 722.140625 404.890625 C 722.140625 580.074219 580.074219 722.140625 404.890625 722.140625 C 229.707031 722.140625 87.640625 580.074219 87.640625 404.890625 Z M 87.640625 404.890625 " fill-opacity="1" fill-rule="nonzero"/></g><path fill="#293688" d="M 322.539062 465.757812 L 346.835938 322.414062 L 386.222656 322.414062 L 361.925781 465.757812 Z M 322.539062 465.757812 " fill-opacity="1" fill-rule="nonzero"/><path fill="#293688" d="M 501.816406 326.121094 C 494.015625 323.179688 481.867188 320.113281 466.652344 320.113281 C 427.78125 320.113281 400.414062 339.546875 400.160156 367.425781 C 399.902344 388.011719 419.722656 399.519531 434.554688 406.425781 C 449.902344 413.457031 455.015625 417.933594 454.886719 424.199219 C 454.761719 433.789062 442.613281 438.136719 431.359375 438.136719 C 415.632812 438.136719 407.320312 435.964844 394.40625 430.59375 L 389.289062 428.289062 L 383.792969 460.386719 C 393 464.351562 410.003906 467.804688 427.523438 468.058594 C 468.828125 468.058594 495.679688 448.878906 495.933594 419.085938 C 496.0625 402.84375 485.578125 390.3125 462.945312 380.082031 C 449.261719 373.433594 440.824219 369.085938 440.824219 362.308594 C 440.824219 356.300781 447.984375 350.035156 463.328125 350.035156 C 476.242188 349.777344 485.449219 352.589844 492.738281 355.53125 L 496.320312 357.195312 Z M 501.816406 326.121094 " fill-opacity="1" fill-rule="nonzero"/><path fill="#293688" d="M 568.820312 322.414062 C 559.359375 322.414062 552.582031 325.226562 548.492188 334.5625 L 490.308594 465.628906 L 531.867188 465.628906 L 539.921875 443.636719 L 589.664062 443.636719 L 594.269531 465.628906 L 631.222656 465.628906 L 598.871094 322.285156 L 568.820312 322.285156 Z M 550.921875 415.121094 C 554.117188 406.808594 566.519531 375.097656 566.519531 375.097656 C 566.265625 375.480469 569.71875 366.785156 571.761719 361.414062 L 574.449219 373.816406 C 574.449219 373.816406 581.992188 408.085938 583.527344 415.246094 L 550.921875 415.246094 Z M 550.921875 415.121094 " fill-opacity="1" fill-rule="nonzero"/><path fill="#293688" d="M 250.933594 420.617188 L 247.480469 400.925781 C 240.320312 378.039062 218.070312 353.230469 193.132812 340.828125 L 227.914062 465.628906 L 269.472656 465.628906 L 331.875 322.285156 L 290.316406 322.285156 Z M 250.933594 420.617188 " fill-opacity="1" fill-rule="nonzero"/><path fill="#f7981d" d="M 150.296875 322.414062 L 150.296875 324.714844 C 199.65625 336.605469 233.796875 366.527344 247.351562 401.054688 L 233.160156 334.6875 C 230.730469 325.609375 223.566406 322.796875 215 322.414062 Z M 150.296875 322.414062 " fill-opacity="1" fill-rule="nonzero"/><g clip-path="url(#edb0050e7d)"><path fill="#f7981d" d="M 404.890625 722.140625 C 527.390625 722.140625 633.523438 652.707031 686.335938 551.175781 L 123.445312 551.175781 C 176.253906 652.707031 282.515625 722.140625 404.890625 722.140625 Z M 404.890625 722.140625 " fill-opacity="1" fill-rule="nonzero"/></g><g clip-path="url(#8d088d9054)"><path fill="#293688" d="M 404.890625 87.640625 C 284.433594 87.640625 179.582031 154.773438 125.875 253.746094 L 683.90625 253.746094 C 630.199219 154.902344 525.34375 87.640625 404.890625 87.640625 Z M 404.890625 87.640625 " fill-opacity="1" fill-rule="nonzero"/></g></svg>